<svg xmlns="http://www.w3.org/2000/svg" xmlns:xlink="http://www.w3.org/1999/xlink" width="500" zoomAndPan="magnify" viewBox="0 0 375 374.999991" height="500" preserveAspectRatio="xMidYMid meet" version="1.0"><defs><g/><clipPath id="ec4ec054c7"><path d="M 133.472656 201 L 206 201 L 206 254 L 133.472656 254 Z M 133.472656 201 " clip-rule="nonzero"/></clipPath><clipPath id="226ee8d3dd"><path d="M 169 238 L 222 238 L 222 262.5 L 169 262.5 Z M 169 238 " clip-rule="nonzero"/></clipPath><clipPath id="f5e951de9d"><path d="M 154 238 L 206 238 L 206 262.5 L 154 262.5 Z M 154 238 " clip-rule="nonzero"/></clipPath><clipPath id="f99aed1f22"><path d="M 143 203 L 242 203 L 242 262.5 L 143 262.5 Z M 143 203 " clip-rule="nonzero"/></clipPath><clipPath id="f1d6a9ad1c"><path d="M 168 112.5 L 233 112.5 L 233 132 L 168 132 Z M 168 112.5 " clip-rule="nonzero"/></clipPath><clipPath id="0122fab4b9"><path d="M 168 119 L 247.472656 119 L 247.472656 138 L 168 138 Z M 168 119 " clip-rule="nonzero"/></clipPath></defs><path fill="#6ea3c2" d="M 192.59375 201.742188 L 191.375 201.742188 L 187.144531 201.773438 L 169.910156 247.691406 C 173.066406 249.421875 176.28125 250.769531 179.550781 251.730469 C 180.347656 252.09375 182.835938 252.597656 187.003906 253.25 C 188.679688 253.441406 190.371094 253.539062 192.078125 253.539062 C 194.652344 253.539062 197.261719 253.320312 199.902344 252.882812 C 201.222656 252.664062 202.550781 252.390625 203.886719 252.0625 C 207.242188 251.144531 209.265625 250.527344 209.957031 250.214844 C 216.519531 247.789062 222.121094 244.484375 226.769531 240.300781 C 231.414062 236.117188 235.105469 231.054688 237.839844 225.113281 C 239.859375 220.316406 240.808594 217.699219 240.695312 217.261719 C 241.242188 215.058594 241.664062 211.300781 241.96875 205.992188 C 242.058594 205.058594 241.65625 204.328125 240.761719 203.808594 C 227.109375 202.597656 211.054688 201.910156 192.59375 201.742188 " fill-opacity="1" fill-rule="nonzero"/><g clip-path="url(#ec4ec054c7)"><path fill="#6ea3c2" d="M 182.96875 201.738281 L 184.191406 201.742188 L 188.421875 201.773438 L 205.625 247.703125 C 202.46875 249.429688 199.253906 250.777344 195.984375 251.738281 C 195.183594 252.097656 192.699219 252.601562 188.527344 253.25 C 186.851562 253.441406 185.160156 253.535156 183.453125 253.535156 C 180.878906 253.535156 178.269531 253.316406 175.628906 252.875 C 174.308594 252.65625 172.980469 252.382812 171.644531 252.050781 C 168.289062 251.132812 166.265625 250.515625 165.578125 250.199219 C 159.019531 247.769531 153.414062 244.464844 148.769531 240.277344 C 144.128906 236.089844 140.441406 231.027344 137.710938 225.082031 C 135.695312 220.285156 134.742188 217.667969 134.859375 217.230469 C 134.316406 215.023438 133.894531 211.269531 133.59375 205.960938 C 133.503906 205.023438 133.90625 204.296875 134.800781 203.777344 C 148.453125 202.574219 164.507812 201.894531 182.96875 201.738281 " fill-opacity="1" fill-rule="nonzero"/></g><g clip-path="url(#226ee8d3dd)"><path fill="#6ea3c2" d="M 212.207031 238.972656 L 212.171875 238.972656 C 204.84375 239.484375 199.515625 239.945312 196.183594 240.355469 C 194.710938 240.527344 193.382812 240.699219 192.199219 240.871094 L 184.035156 242.257812 C 183.386719 242.355469 182.78125 242.40625 182.214844 242.414062 L 169.636719 255.128906 C 170.378906 256.09375 171.464844 257.015625 172.894531 257.890625 C 173.609375 258.328125 174.414062 258.753906 175.300781 259.167969 L 176.699219 259.777344 C 177.675781 260.179688 178.734375 260.570312 179.882812 260.949219 C 182.917969 261.945312 186.589844 262.398438 190.898438 262.304688 C 194.621094 262.1875 197.691406 261.964844 200.105469 261.625 L 203.902344 261.03125 C 206.324219 260.574219 208.539062 260 210.542969 259.3125 C 212.542969 258.621094 214.335938 257.816406 215.917969 256.894531 L 218.128906 255.421875 L 220.5 253.351562 C 220.734375 253.238281 220.984375 252.734375 221.261719 251.835938 C 221.316406 251.457031 221.300781 251.050781 221.210938 250.617188 C 221.121094 250.183594 220.957031 249.722656 220.71875 249.234375 C 219.210938 246.097656 218.390625 244.5 218.261719 244.4375 C 217.292969 242.847656 216.238281 241.535156 215.105469 240.492188 C 214.539062 239.972656 213.953125 239.523438 213.34375 239.140625 C 212.832031 239.015625 212.453125 238.960938 212.207031 238.972656 " fill-opacity="1" fill-rule="nonzero"/></g><g clip-path="url(#f5e951de9d)"><path fill="#6ea3c2" d="M 163.335938 238.957031 L 163.371094 238.957031 C 170.699219 239.472656 176.027344 239.9375 179.355469 240.351562 C 180.828125 240.523438 182.15625 240.695312 183.339844 240.867188 L 191.503906 242.261719 C 192.152344 242.359375 192.757812 242.410156 193.320312 242.417969 L 205.894531 255.136719 C 205.152344 256.105469 204.066406 257.027344 202.636719 257.898438 C 201.917969 258.335938 201.117188 258.761719 200.226562 259.175781 L 198.828125 259.785156 C 197.855469 260.1875 196.792969 260.578125 195.644531 260.953125 C 192.609375 261.949219 188.9375 262.398438 184.628906 262.300781 C 180.902344 262.183594 177.835938 261.957031 175.421875 261.617188 L 171.625 261.019531 C 169.203125 260.5625 166.988281 259.988281 164.988281 259.296875 C 162.984375 258.605469 161.191406 257.800781 159.613281 256.875 L 157.402344 255.402344 L 155.03125 253.332031 C 154.800781 253.21875 154.546875 252.710938 154.273438 251.8125 C 154.214844 251.433594 154.230469 251.027344 154.324219 250.597656 C 154.414062 250.164062 154.578125 249.703125 154.816406 249.214844 C 156.324219 246.078125 157.144531 244.480469 157.277344 244.421875 C 158.246094 242.832031 159.300781 241.515625 160.433594 240.476562 C 161 239.957031 161.589844 239.507812 162.195312 239.125 C 162.710938 239 163.089844 238.945312 163.335938 238.957031 " fill-opacity="1" fill-rule="nonzero"/></g><g clip-path="url(#f99aed1f22)"><path fill="#8ebcd6" d="M 237.132812 203.503906 C 236.714844 204.398438 236.265625 205.28125 235.789062 206.148438 C 233.914062 209.539062 231.578125 212.71875 228.773438 215.6875 C 225.96875 218.65625 222.699219 221.410156 218.960938 223.953125 L 213.007812 227.613281 C 210.339844 229.011719 205.960938 230.589844 199.871094 232.34375 C 198.140625 232.84375 196.273438 233.355469 194.269531 233.878906 C 189.003906 235.097656 183.527344 235.953125 177.835938 236.441406 C 176.5625 236.53125 175.300781 236.605469 174.046875 236.660156 L 174.046875 236.664062 L 174.042969 236.664062 C 171.875 236.757812 169.734375 236.808594 167.625 236.808594 C 159.09375 236.804688 150.992188 236.003906 143.324219 234.402344 L 143.320312 234.402344 C 144.960938 236.523438 146.777344 238.480469 148.769531 240.277344 C 151.089844 242.367188 153.648438 244.242188 156.449219 245.894531 C 156.046875 246.683594 155.5 247.789062 154.816406 249.214844 C 154.578125 249.703125 154.414062 250.164062 154.324219 250.597656 C 154.230469 251.03125 154.214844 251.433594 154.273438 251.8125 C 154.546875 252.710938 154.800781 253.21875 155.03125 253.332031 L 157.402344 255.402344 L 159.613281 256.875 C 161.191406 257.800781 162.984375 258.605469 164.988281 259.296875 C 166.988281 259.988281 169.203125 260.5625 171.625 261.019531 L 175.421875 261.617188 C 177.835938 261.957031 180.902344 262.183594 184.628906 262.300781 C 185.007812 262.308594 185.382812 262.3125 185.753906 262.3125 C 186.441406 262.3125 187.109375 262.300781 187.761719 262.269531 C 188.417969 262.300781 189.085938 262.316406 189.773438 262.316406 C 190.144531 262.316406 190.519531 262.3125 190.898438 262.304688 C 194.621094 262.1875 197.691406 261.964844 200.105469 261.625 L 203.902344 261.03125 C 206.324219 260.574219 208.539062 260 210.542969 259.3125 C 212.542969 258.621094 214.335938 257.816406 215.917969 256.894531 L 218.128906 255.421875 L 220.5 253.351562 C 220.734375 253.238281 220.984375 252.734375 221.261719 251.835938 C 221.316406 251.457031 221.300781 251.050781 221.210938 250.617188 C 221.121094 250.183594 220.957031 249.722656 220.71875 249.234375 C 220.035156 247.808594 219.492188 246.703125 219.089844 245.914062 C 221.886719 244.261719 224.445312 242.390625 226.769531 240.300781 C 231.414062 236.117188 235.105469 231.054688 237.839844 225.113281 C 239.859375 220.316406 240.808594 217.699219 240.695312 217.261719 C 241.242188 215.058594 241.664062 211.300781 241.96875 205.992188 C 242.058594 205.058594 241.65625 204.328125 240.761719 203.808594 C 239.570312 203.703125 238.363281 203.601562 237.136719 203.503906 Z M 201.238281 235.992188 L 202.628906 239.707031 C 200.257812 239.910156 198.285156 240.105469 196.707031 240.292969 C 198.285156 240.105469 200.257812 239.910156 202.628906 239.707031 Z M 193.320312 242.417969 L 200.832031 250.015625 L 200.828125 250.015625 Z M 203.046875 252.261719 L 203.042969 252.261719 C 203.042969 252.261719 203.042969 252.261719 203.046875 252.261719 Z M 187.765625 253.328125 L 187.761719 253.328125 C 187.761719 253.328125 187.761719 253.328125 187.765625 253.328125 Z M 187.765625 253.328125 " fill-opacity="1" fill-rule="nonzero"/></g><g clip-path="url(#f1d6a9ad1c)"><path fill="#813b10" d="M 226.378906 112.566406 L 226.113281 112.570312 C 224.921875 112.59375 223.914062 112.707031 223.089844 112.902344 C 218.84375 113.878906 214.285156 115.015625 209.421875 116.316406 L 174.269531 126.496094 C 172.320312 127.078125 170.328125 127.882812 168.296875 128.902344 C 168.226562 128.875 168.191406 129.011719 168.195312 129.3125 L 168.628906 131.085938 C 168.804688 131.003906 169.523438 130.859375 170.785156 130.644531 C 178.152344 129.40625 182.9375 128.5625 185.144531 128.117188 C 190.800781 127.007812 198.074219 125.523438 206.957031 123.671875 L 223.75 120.5625 C 225.734375 120.15625 227.121094 119.816406 227.90625 119.546875 C 228.972656 119.21875 229.960938 118.820312 230.871094 118.347656 C 231.300781 118.113281 231.644531 117.824219 231.902344 117.476562 C 232.433594 116.9375 232.628906 115.976562 232.496094 114.585938 C 232.324219 113.820312 231.972656 113.3125 231.441406 113.0625 L 228.589844 112.683594 C 227.925781 112.613281 227.191406 112.574219 226.378906 112.566406 " fill-opacity="1" fill-rule="nonzero"/></g><path fill="#fdc106" d="M 172.589844 135.109375 C 172.484375 135.109375 172.382812 135.117188 172.277344 135.132812 C 171.148438 135.296875 170.351562 136.3125 170.445312 137.433594 C 170.4375 138.0625 170.28125 140.777344 169.964844 145.585938 L 169.964844 145.617188 C 169.910156 146.691406 169.875 147.601562 169.859375 148.347656 C 169.816406 150.324219 169.90625 152.089844 170.125 153.652344 L 170.128906 153.664062 C 170.390625 155.453125 170.828125 157.238281 171.4375 159.019531 L 171.445312 159.039062 L 171.449219 159.058594 C 171.761719 159.917969 172.171875 160.902344 172.679688 162.015625 C 172.695312 162.046875 172.710938 162.078125 172.726562 162.109375 C 174.535156 165.613281 175.753906 168.210938 176.375 169.902344 L 176.386719 169.933594 C 177.121094 171.835938 177.707031 173.917969 178.140625 176.175781 C 178.148438 176.207031 178.15625 176.242188 178.164062 176.273438 C 179.304688 181.011719 179.519531 187.9375 178.816406 197.050781 C 178.726562 198.234375 179.609375 199.265625 180.789062 199.355469 C 180.847656 199.359375 180.902344 199.363281 180.957031 199.363281 C 182.066406 199.363281 183.007812 198.507812 183.09375 197.382812 C 183.832031 187.878906 183.585938 180.539062 182.359375 175.367188 L 182.355469 175.367188 C 181.875 172.871094 181.226562 170.554688 180.402344 168.417969 C 179.722656 166.574219 178.453125 163.847656 176.585938 160.234375 L 176.582031 160.234375 C 176.125 159.234375 175.761719 158.359375 175.492188 157.613281 C 174.96875 156.089844 174.597656 154.570312 174.375 153.050781 C 174.1875 151.71875 174.113281 150.179688 174.152344 148.4375 L 174.152344 148.429688 C 174.164062 147.738281 174.195312 146.882812 174.25 145.863281 C 174.582031 140.753906 174.742188 137.898438 174.734375 137.304688 C 174.734375 137.175781 174.722656 137.054688 174.707031 136.949219 C 174.554688 135.878906 173.636719 135.109375 172.589844 135.109375 Z M 172.589844 135.109375 " fill-opacity="1" fill-rule="nonzero"/><path fill="#fdc106" d="M 180.492188 133.617188 C 179.417969 133.617188 178.488281 134.425781 178.363281 135.523438 C 177.488281 143.277344 177.503906 148.957031 178.402344 152.566406 L 178.398438 152.566406 C 178.679688 153.976562 179.023438 155.183594 179.425781 156.195312 L 179.4375 156.222656 L 184.1875 167.578125 C 185.054688 170.277344 185.605469 172.613281 185.832031 174.585938 C 185.835938 174.605469 185.835938 174.625 185.839844 174.644531 C 186.175781 176.957031 186.390625 180.367188 186.488281 184.882812 C 186.488281 184.925781 186.492188 184.96875 186.496094 185.007812 C 186.53125 185.621094 186.457031 189.164062 186.273438 195.644531 C 186.238281 196.828125 187.171875 197.816406 188.355469 197.851562 C 188.375 197.851562 188.398438 197.851562 188.417969 197.851562 C 189.574219 197.851562 190.527344 196.929688 190.5625 195.765625 C 190.746094 189.316406 190.820312 185.660156 190.78125 184.789062 L 190.777344 184.789062 C 190.675781 180.136719 190.449219 176.570312 190.097656 174.089844 L 190.09375 174.089844 C 189.832031 171.808594 189.210938 169.160156 188.230469 166.140625 C 188.214844 166.085938 188.191406 166.03125 188.171875 165.972656 L 183.398438 154.566406 C 183.089844 153.789062 182.820312 152.8125 182.589844 151.636719 C 182.582031 151.597656 182.574219 151.5625 182.566406 151.527344 C 181.789062 148.421875 181.8125 143.246094 182.628906 136.003906 C 182.761719 134.824219 181.914062 133.761719 180.734375 133.628906 C 180.65625 133.621094 180.574219 133.617188 180.492188 133.617188 Z M 180.492188 133.617188 " fill-opacity="1" fill-rule="nonzero"/><path fill="#fdc106" d="M 187.125 132.765625 C 187.066406 132.765625 187.003906 132.765625 186.941406 132.773438 C 185.761719 132.871094 184.886719 133.910156 184.984375 135.089844 C 185.375 139.683594 185.832031 143.03125 186.359375 145.128906 L 186.359375 145.136719 C 186.621094 146.152344 186.910156 147.128906 187.230469 148.0625 C 187.238281 148.078125 187.242188 148.097656 187.25 148.113281 C 189.738281 154.78125 191.105469 158.679688 191.359375 159.816406 C 191.371094 159.871094 191.386719 159.929688 191.402344 159.988281 C 192.324219 162.9375 193.003906 166.054688 193.453125 169.339844 L 193.453125 169.34375 C 193.859375 172.265625 194.0625 176.164062 194.066406 181.050781 C 194.066406 182.417969 194.050781 183.59375 194.023438 184.578125 C 193.75 189.570312 193.585938 193.445312 193.535156 196.203125 C 193.511719 197.386719 194.453125 198.367188 195.636719 198.390625 C 195.652344 198.390625 195.664062 198.390625 195.679688 198.390625 C 196.84375 198.390625 197.800781 197.457031 197.824219 196.285156 C 197.878906 193.570312 198.039062 189.726562 198.308594 184.757812 L 198.3125 184.707031 C 198.34375 183.675781 198.355469 182.457031 198.355469 181.050781 C 198.355469 175.96875 198.136719 171.875 197.703125 168.757812 C 197.230469 165.28125 196.507812 161.972656 195.539062 158.828125 L 195.535156 158.828125 C 195.214844 157.449219 193.800781 153.394531 191.289062 146.667969 C 191.007812 145.84375 190.75 144.984375 190.519531 144.082031 C 190.050781 142.210938 189.628906 139.09375 189.261719 134.730469 C 189.167969 133.609375 188.230469 132.765625 187.125 132.765625 Z M 187.125 132.765625 " fill-opacity="1" fill-rule="nonzero"/><path fill="#fdc106" d="M 195.03125 131.910156 C 193.941406 131.910156 193.007812 132.742188 192.898438 133.851562 C 192.699219 135.898438 192.859375 137.855469 193.378906 139.71875 L 193.375 139.71875 C 193.816406 141.515625 195.050781 144.773438 197.074219 149.5 C 197.445312 150.542969 197.96875 152.15625 198.640625 154.347656 L 198.636719 154.347656 C 199.613281 157.886719 200.3125 161.234375 200.730469 164.394531 L 200.730469 164.402344 C 201.070312 166.882812 201.195312 171.113281 201.113281 177.097656 L 201.113281 177.105469 C 201.101562 178.035156 201.046875 179.667969 200.941406 182 C 200.398438 192.183594 200.132812 197.6875 200.148438 198.519531 C 200.171875 199.691406 201.128906 200.621094 202.292969 200.621094 C 202.308594 200.621094 202.324219 200.621094 202.339844 200.621094 C 203.523438 200.597656 204.464844 199.617188 204.4375 198.433594 C 204.425781 197.707031 204.6875 192.300781 205.230469 182.210938 L 205.230469 182.191406 C 205.335938 179.8125 205.390625 178.136719 205.402344 177.160156 C 205.492188 170.96875 205.351562 166.523438 204.984375 163.832031 C 204.539062 160.457031 203.796875 156.898438 202.757812 153.148438 C 202.753906 153.128906 202.746094 153.109375 202.742188 153.089844 C 202.027344 150.757812 201.472656 149.042969 201.070312 147.9375 C 201.058594 147.902344 201.042969 147.863281 201.027344 147.824219 C 199.0625 143.25 197.898438 140.191406 197.53125 138.648438 C 197.527344 138.621094 197.519531 138.597656 197.511719 138.570312 C 197.136719 137.21875 197.023438 135.78125 197.167969 134.265625 C 197.285156 133.085938 196.421875 132.035156 195.242188 131.921875 C 195.171875 131.914062 195.101562 131.910156 195.03125 131.910156 Z M 195.03125 131.910156 " fill-opacity="1" fill-rule="nonzero"/><g clip-path="url(#0122fab4b9)"><path fill="#813b10" d="M 241.308594 119.941406 L 241.058594 119.941406 C 240.207031 119.945312 239.332031 120.042969 238.441406 120.226562 L 222.132812 124.230469 C 221.253906 124.464844 215.886719 125.652344 206.039062 127.785156 C 196.597656 129.40625 187.730469 131.167969 179.425781 133.082031 C 177.957031 133.429688 176.710938 133.777344 175.683594 134.128906 L 170.378906 136.15625 C 169.453125 136.476562 168.886719 136.988281 168.683594 137.695312 C 168.566406 137.773438 168.371094 137.839844 168.089844 137.898438 C 168.675781 137.785156 169.386719 137.695312 170.222656 137.621094 C 175.320312 137.300781 178.300781 137.074219 179.167969 136.941406 L 186.757812 135.914062 L 209.351562 133.257812 C 230.089844 129.890625 240.527344 128.113281 240.664062 127.914062 C 243.105469 127.3125 244.792969 126.699219 245.714844 126.078125 C 246.433594 125.796875 246.890625 124.890625 247.089844 123.359375 C 247.078125 121.917969 246.6875 120.953125 245.921875 120.460938 L 243.355469 120.058594 C 242.746094 119.984375 242.066406 119.945312 241.308594 119.941406 " fill-opacity="1" fill-rule="nonzero"/></g><g fill="#000000" fill-opacity="1"><g transform="translate(128.828244, 233.07454)"><g><path d="M 1.128906 -3.3125 C 2.183594 3.351562 13.492188 -1.636719 16.300781 -4.5625 C 20.703125 -9.164062 23.160156 -17.46875 19.613281 -23.394531 C 17.859375 -26.398438 14.347656 -27.527344 11.074219 -27.722656 C 8.265625 -27.917969 3.664062 -27.722656 1.832031 -25.226562 C -0.0390625 -22.617188 0.742188 -18.132812 0.859375 -15.128906 C 1.015625 -11.269531 0.546875 -7.136719 1.128906 -3.3125 Z M 9.046875 -8.890625 C 7.058594 -9.320312 7.914062 -13.726562 7.914062 -15.167969 C 7.953125 -17.507812 7.292969 -20.160156 10.371094 -19.378906 C 12.710938 -18.832031 14.542969 -16.882812 14 -14.386719 C 13.648438 -12.789062 11.269531 -8.382812 9.046875 -8.890625 Z M 9.046875 -8.890625 "/></g></g></g><g fill="#000000" fill-opacity="1"><g transform="translate(150.739627, 233.07454)"><g><path d="M 12.984375 -0.625 C 18.832031 -2.847656 19.417969 -11.347656 18.445312 -16.609375 C 17.351562 -22.460938 12.007812 -24.839844 6.550781 -22.886719 C -0.46875 -20.394531 -0.117188 -12.671875 1.675781 -6.746094 C 2.457031 -4.132812 3.273438 -1.871094 5.925781 -0.703125 C 8.070312 0.234375 10.761719 0.195312 12.984375 -0.625 Z M 8.1875 -5.886719 C 6.667969 -7.449219 6.785156 -11.855469 7.410156 -13.84375 C 7.875 -15.246094 10.292969 -17.195312 11.96875 -16.300781 C 14.191406 -15.050781 13.453125 -9.671875 12.945312 -7.679688 C 12.320312 -5.382812 10.410156 -3.625 8.1875 -5.886719 Z M 8.1875 -5.886719 "/></g></g></g><g fill="#000000" fill-opacity="1"><g transform="translate(170.155763, 233.07454)"><g><path d="M 1.128906 -3.3125 C 2.183594 3.351562 13.492188 -1.636719 16.300781 -4.5625 C 20.703125 -9.164062 23.160156 -17.46875 19.613281 -23.394531 C 17.859375 -26.398438 14.347656 -27.527344 11.074219 -27.722656 C 8.265625 -27.917969 3.664062 -27.722656 1.832031 -25.226562 C -0.0390625 -22.617188 0.742188 -18.132812 0.859375 -15.128906 C 1.015625 -11.269531 0.546875 -7.136719 1.128906 -3.3125 Z M 9.046875 -8.890625 C 7.058594 -9.320312 7.914062 -13.726562 7.914062 -15.167969 C 7.953125 -17.507812 7.292969 -20.160156 10.371094 -19.378906 C 12.710938 -18.832031 14.542969 -16.882812 14 -14.386719 C 13.648438 -12.789062 11.269531 -8.382812 9.046875 -8.890625 Z M 9.046875 -8.890625 "/></g></g></g><g fill="#000000" fill-opacity="1"><g transform="translate(192.067146, 233.07454)"><g><path d="M 12.984375 -0.625 C 18.832031 -2.847656 19.417969 -11.347656 18.445312 -16.609375 C 17.351562 -22.460938 12.007812 -24.839844 6.550781 -22.886719 C -0.46875 -20.394531 -0.117188 -12.671875 1.675781 -6.746094 C 2.457031 -4.132812 3.273438 -1.871094 5.925781 -0.703125 C 8.070312 0.234375 10.761719 0.195312 12.984375 -0.625 Z M 8.1875 -5.886719 C 6.667969 -7.449219 6.785156 -11.855469 7.410156 -13.84375 C 7.875 -15.246094 10.292969 -17.195312 11.96875 -16.300781 C 14.191406 -15.050781 13.453125 -9.671875 12.945312 -7.679688 C 12.320312 -5.382812 10.410156 -3.625 8.1875 -5.886719 Z M 8.1875 -5.886719 "/></g></g></g><g fill="#000000" fill-opacity="1"><g transform="translate(211.483283, 233.07454)"><g><path d="M 1.832031 -0.742188 C 5.535156 3.199219 7.253906 -9.863281 7.640625 -11.464844 C 9.242188 -8.851562 15.636719 4.484375 19.183594 -3.160156 C 21.40625 -7.875 20.78125 -15.832031 20.042969 -20.667969 C 19.691406 -23.277344 16.921875 -24.371094 15.011719 -22.382812 C 13.023438 -20.277344 13.84375 -16.144531 14 -13.609375 C 12.4375 -16.027344 11.582031 -18.675781 10.097656 -21.054688 C 8.929688 -23.003906 6.394531 -24.644531 4.09375 -23.511719 C 0.429688 -21.679688 1.015625 -13.414062 0.820312 -9.941406 C 0.703125 -7.527344 0.0390625 -2.691406 1.832031 -0.742188 Z M 1.832031 -0.742188 "/></g></g></g><g fill="#000000" fill-opacity="1"><g transform="translate(232.80985, 233.07454)"><g><path d="M 6.472656 -0.078125 C 8.890625 -0.195312 11.308594 -0.15625 13.6875 -0.273438 C 15.675781 -0.390625 17.15625 -0.664062 17.9375 -2.613281 C 18.40625 -3.898438 18.675781 -6.238281 17.390625 -7.214844 C 15.949219 -8.265625 13.6875 -7.796875 12.046875 -7.875 C 10.566406 -7.953125 6.746094 -9.164062 8.96875 -11.230469 C 10.292969 -12.476562 12.359375 -10.996094 13.921875 -11.425781 C 15.636719 -11.933594 16.027344 -13.882812 15.832031 -15.480469 C 15.714844 -16.84375 15.246094 -17.625 13.921875 -18.132812 C 12.632812 -18.597656 9.941406 -17.742188 8.929688 -18.484375 C 7.566406 -19.457031 8.8125 -21.289062 9.789062 -21.484375 C 11.269531 -21.835938 12.867188 -20.820312 14.425781 -21.445312 C 15.792969 -21.992188 16.492188 -23.277344 16.300781 -24.761719 C 16.027344 -26.828125 14.308594 -27.179688 12.515625 -27.449219 C 9.863281 -27.839844 2.847656 -29.167969 1.675781 -25.890625 C 1.167969 -24.488281 1.441406 -22.539062 1.363281 -21.09375 C 1.285156 -18.484375 1.167969 -15.871094 1.054688 -13.257812 C 0.9375 -11.035156 0.859375 -8.8125 0.742188 -6.589844 C 0.664062 -4.835938 0.15625 -2.300781 1.558594 -0.9375 C 2.847656 0.3125 4.914062 -0.0390625 6.472656 -0.078125 Z M 6.472656 -0.078125 "/></g></g></g><g fill="#000000" fill-opacity="1"><g transform="translate(71.528547, 283.479941)"><g><path d="M 1.277344 -9.605469 C 1.367188 -9.515625 1.367188 -9.421875 1.367188 -9.304688 C 1.367188 -9.136719 1.351562 -8.957031 1.351562 -8.792969 C 1.382812 -8.628906 1.382812 -8.476562 1.382812 -8.328125 C 1.382812 -7.769531 1.335938 -6.882812 1.335938 -6.28125 C 1.335938 -5.757812 1.367188 -5.246094 1.367188 -4.71875 C 1.367188 -4.523438 1.351562 -4.328125 1.277344 -4.117188 L 1.277344 -4.074219 C 1.277344 -4.042969 1.308594 -4.011719 1.308594 -3.996094 C 1.21875 -3.171875 1.203125 -2.285156 1.203125 -1.441406 C 0.976562 -1.441406 1.007812 -0.976562 0.945312 -0.765625 L 0.917969 -0.300781 C 0.917969 -0.269531 0.902344 -0.226562 0.902344 -0.195312 C 0.902344 -0.105469 0.917969 -0.015625 0.933594 0.0742188 C 0.933594 0.179688 0.917969 0.226562 0.917969 0.253906 C 0.933594 0.285156 0.960938 0.300781 1.035156 0.300781 C 1.050781 0.300781 1.082031 0.285156 1.128906 0.285156 C 1.1875 0.332031 1.261719 0.359375 1.308594 0.359375 C 1.429688 0.316406 1.5625 0.285156 1.699219 0.285156 C 1.699219 0.359375 2.027344 0.527344 2.269531 0.527344 C 2.449219 0.527344 2.71875 0.4375 2.976562 0.4375 C 3.410156 0.4375 3.894531 0.375 4.390625 0.390625 L 5.5625 0.359375 C 5.652344 0.300781 5.726562 0.300781 5.816406 0.300781 L 6.175781 0.300781 C 6.253906 0.269531 6.296875 0.269531 6.386719 0.269531 L 6.507812 0.269531 C 6.671875 0.179688 6.761719 0.148438 6.761719 0.148438 L 6.855469 0.0585938 C 7.214844 0.015625 8.011719 -0.03125 8.011719 -0.316406 C 8.011719 -0.34375 7.996094 -0.390625 7.949219 -0.40625 C 7.949219 -0.421875 7.921875 -0.480469 8.027344 -0.542969 C 8.011719 -0.554688 7.996094 -0.570312 7.964844 -0.570312 C 7.949219 -0.570312 7.921875 -0.554688 7.890625 -0.554688 C 7.574219 -0.554688 7.425781 -0.828125 7.351562 -0.828125 L 7.335938 -0.828125 L 7.335938 -0.917969 L 7.351562 -0.933594 C 7.351562 -0.945312 7.335938 -0.945312 7.335938 -0.945312 L 7.289062 -0.992188 C 7.140625 -0.992188 6.957031 -0.992188 6.824219 -1.023438 C 5.832031 -1.023438 4.3125 -0.992188 3.605469 -0.960938 C 3.457031 -0.945312 3.335938 -0.945312 3.292969 -0.933594 L 3.292969 -0.839844 L 2.71875 -0.976562 C 2.511719 -0.976562 2.554688 -1.503906 2.554688 -1.667969 C 2.554688 -2.148438 2.644531 -2.585938 2.644531 -3.097656 C 2.644531 -3.203125 2.644531 -3.304688 2.628906 -3.410156 L 2.660156 -3.96875 C 2.660156 -4.074219 2.613281 -4.132812 2.613281 -4.238281 C 2.660156 -4.480469 3.800781 -4.417969 4.492188 -4.464844 C 5.183594 -4.464844 5.953125 -4.539062 6.839844 -4.613281 C 7.0625 -4.628906 7.320312 -4.644531 7.394531 -4.71875 C 7.441406 -4.765625 7.453125 -4.792969 7.484375 -4.808594 C 7.484375 -4.929688 7.410156 -5.171875 7.183594 -5.171875 C 7.078125 -5.304688 6.6875 -5.304688 6.75 -5.351562 C 6.164062 -5.351562 5.304688 -5.261719 4.464844 -5.261719 L 3.816406 -5.261719 C 3.441406 -5.230469 3.050781 -5.183594 2.78125 -5.183594 C 2.675781 -5.183594 2.644531 -5.378906 2.644531 -5.5625 L 2.675781 -6.164062 C 2.675781 -7.109375 2.71875 -8.085938 2.71875 -8.972656 C 2.75 -9.152344 2.796875 -9.152344 2.960938 -9.152344 L 3.636719 -9.152344 C 3.832031 -9.152344 4.027344 -9.136719 4.253906 -9.136719 C 4.417969 -9.136719 4.613281 -9.167969 4.792969 -9.183594 L 5.96875 -9.183594 L 6.566406 -9.242188 C 6.898438 -9.273438 7.246094 -9.242188 7.558594 -9.394531 L 7.558594 -9.46875 C 7.558594 -9.621094 7.726562 -9.574219 7.753906 -9.722656 C 7.589844 -9.859375 7.574219 -9.949219 7.453125 -9.980469 L 7.453125 -10.023438 C 7.378906 -10.085938 7.394531 -10.234375 7.246094 -10.234375 L 7.078125 -10.234375 C 6.898438 -10.355469 6.371094 -10.3125 6.070312 -10.3125 C 5.710938 -10.3125 5.351562 -10.296875 5.019531 -10.296875 C 4.734375 -10.296875 4.464844 -10.324219 4.195312 -10.324219 C 3.667969 -10.324219 3.15625 -10.28125 2.585938 -10.28125 C 2.511719 -10.207031 2.449219 -10.207031 2.417969 -10.207031 C 2.375 -10.207031 2.34375 -10.25 2.34375 -10.25 C 2.238281 -10.25 2.179688 -10.25 2.058594 -10.207031 L 2.058594 -10.160156 C 2.027344 -10.128906 2 -10.128906 1.96875 -10.128906 C 1.863281 -10.128906 1.625 -10.355469 1.488281 -10.355469 C 1.398438 -10.21875 1.351562 -9.84375 1.277344 -9.605469 Z M 1.277344 -9.605469 "/></g></g></g><g fill="#000000" fill-opacity="1"><g transform="translate(88.316659, 283.479941)"><g><path d="M 0.632812 0.332031 C 0.644531 0.332031 0.722656 0.285156 0.738281 0.269531 C 0.738281 0.285156 0.722656 0.316406 0.722656 0.332031 C 0.722656 0.40625 0.78125 0.449219 0.828125 0.449219 C 0.945312 0.449219 0.871094 0.316406 1.140625 0.316406 C 1.203125 0.316406 1.277344 0.316406 1.292969 0.300781 C 1.292969 0.300781 1.308594 0.316406 1.324219 0.316406 C 1.335938 0.179688 1.398438 0.03125 1.457031 -0.0898438 L 1.53125 -0.253906 C 1.625 -0.390625 1.757812 -0.691406 1.789062 -0.886719 C 1.789062 -0.902344 1.773438 -0.917969 1.773438 -0.933594 L 1.804688 -1.1875 C 1.820312 -1.367188 2.027344 -1.925781 2.089844 -2.375 L 2.179688 -2.75 L 2.539062 -2.707031 C 2.539062 -2.691406 2.523438 -2.855469 2.628906 -2.824219 C 2.691406 -2.824219 2.902344 -2.796875 3.007812 -2.796875 C 2.992188 -2.796875 2.992188 -2.78125 2.992188 -2.78125 C 3.140625 -2.75 3.277344 -2.75 3.425781 -2.75 C 3.605469 -2.75 3.878906 -2.796875 3.953125 -2.796875 C 4.027344 -2.796875 4.042969 -2.824219 4.089844 -2.824219 C 4.328125 -2.824219 4.734375 -2.75 4.976562 -2.75 C 5.109375 -2.75 5.15625 -2.511719 5.230469 -2.511719 C 5.367188 -2.464844 5.515625 -2.449219 5.679688 -2.417969 L 6.238281 -2.34375 C 6.371094 -2.316406 6.433594 -2.058594 6.523438 -1.773438 C 6.582031 -1.667969 6.628906 -1.625 6.628906 -1.503906 L 6.71875 -1.335938 C 6.671875 -1.292969 6.824219 -1.261719 6.824219 -1.097656 C 6.824219 -1.066406 6.867188 -0.933594 6.898438 -0.902344 L 7.035156 -0.632812 C 7.050781 -0.632812 7.078125 -0.644531 7.09375 -0.660156 C 7.125 -0.554688 7.378906 0.449219 7.394531 0.449219 C 7.753906 0.449219 7.605469 0.375 8.070312 0.375 C 8.070312 0.449219 8.355469 0.449219 8.535156 0.179688 C 8.566406 0.179688 8.582031 0.242188 8.613281 0.242188 C 8.65625 0.242188 8.71875 0.195312 8.71875 0.0898438 L 8.71875 0.0585938 C 8.71875 0.03125 8.71875 0.03125 8.746094 0.03125 L 8.746094 -0.300781 C 8.746094 -0.542969 8.671875 -0.675781 8.597656 -0.917969 C 8.597656 -0.933594 8.613281 -0.945312 8.613281 -0.960938 C 8.613281 -0.992188 8.476562 -1.335938 8.070312 -2.195312 L 7.832031 -2.886719 C 7.515625 -3.789062 7.273438 -4.570312 7.019531 -5.320312 L 6.839844 -5.863281 C 6.628906 -6.371094 6.566406 -6.957031 6.34375 -7.425781 C 6.328125 -7.425781 6.3125 -7.410156 6.3125 -7.410156 C 6.253906 -7.816406 5.90625 -8.476562 5.710938 -8.792969 C 5.515625 -9.109375 5.335938 -9.410156 5.183594 -9.679688 L 5.050781 -9.917969 C 5.003906 -9.980469 4.960938 -10.054688 4.792969 -10.128906 C 4.792969 -10.113281 4.78125 -10.113281 4.78125 -10.101562 C 4.78125 -10.191406 4.480469 -10.355469 4.296875 -10.476562 C 4.238281 -10.460938 4.207031 -10.445312 4.195312 -10.429688 C 4.164062 -10.507812 4.089844 -10.597656 3.984375 -10.597656 C 3.921875 -10.597656 3.894531 -10.535156 3.847656 -10.476562 L 3.605469 -10.039062 C 3.488281 -9.980469 3.425781 -9.828125 3.335938 -9.769531 L 3.140625 -9.320312 C 3.035156 -9.09375 2.960938 -8.746094 2.855469 -8.703125 C 2.855469 -8.671875 2.871094 -8.65625 2.871094 -8.65625 C 2.839844 -8.582031 2.839844 -8.507812 2.8125 -8.445312 L 2.707031 -8.070312 C 2.417969 -7.351562 2.375 -6.839844 2.164062 -6.117188 L 1.683594 -4.449219 C 1.519531 -3.800781 1.324219 -3.90625 1.324219 -3.757812 C 1.398438 -3.710938 1.382812 -3.742188 1.457031 -3.636719 C 1.292969 -3.007812 1.128906 -2.042969 0.839844 -1.171875 L 0.722656 -0.722656 C 0.738281 -0.722656 0.644531 -0.707031 0.644531 -0.675781 C 0.644531 -0.675781 0.660156 -0.660156 0.660156 -0.644531 C 0.644531 -0.542969 0.601562 -0.421875 0.585938 -0.34375 L 0.449219 -0.105469 C 0.449219 -0.046875 0.449219 -0.015625 0.480469 0 L 0.480469 0.03125 C 0.464844 0.046875 0.464844 0.0585938 0.464844 0.0742188 C 0.464844 0.121094 0.617188 0.164062 0.601562 0.164062 C 0.617188 0.164062 0.632812 0.148438 0.660156 0.136719 Z M 5.785156 -3.304688 L 5.546875 -3.304688 L 4.882812 -3.398438 C 4.417969 -3.425781 3.773438 -3.441406 3.214844 -3.605469 C 3.171875 -3.605469 3.097656 -3.59375 3.035156 -3.59375 C 2.871094 -3.59375 2.34375 -3.605469 2.34375 -3.683594 C 2.34375 -4.058594 2.691406 -4.945312 2.824219 -5.394531 C 2.929688 -5.773438 3.066406 -6.117188 3.171875 -6.449219 C 3.246094 -6.523438 3.53125 -7.558594 3.53125 -7.53125 C 3.621094 -7.726562 3.742188 -8.265625 3.847656 -8.492188 L 3.9375 -8.671875 L 4.570312 -7.351562 C 5.003906 -6.191406 5.019531 -6.101562 5.304688 -5.035156 L 5.394531 -4.765625 C 5.457031 -4.585938 5.5 -4.402344 5.5625 -4.238281 L 5.816406 -3.351562 C 5.816406 -3.335938 5.816406 -3.335938 5.785156 -3.304688 Z M 5.785156 -3.304688 "/></g></g></g><g fill="#000000" fill-opacity="1"><g transform="translate(105.825899, 283.479941)"><g><path d="M 6.554688 -7.351562 C 6.660156 -7.351562 6.734375 -7.484375 6.75 -7.589844 C 7.125 -10.070312 5.367188 -10.476562 4.960938 -10.609375 L 4.914062 -10.609375 C 4.78125 -10.609375 4.507812 -10.640625 4.390625 -10.703125 C 4.390625 -10.703125 4.390625 -10.65625 4.34375 -10.65625 C 4.253906 -10.671875 4.164062 -10.671875 4.074219 -10.671875 C 2.601562 -10.671875 1.261719 -9.5 0.976562 -8.117188 C 0.976562 -7.605469 1.035156 -7.304688 1.457031 -6.660156 C 2.238281 -5.816406 3.214844 -5.320312 4.101562 -4.792969 C 5.199219 -4.132812 6.433594 -3.351562 6.433594 -2 C 6.433594 -0.691406 5.710938 -0.121094 4.449219 -0.046875 C 4.207031 -0.046875 3.953125 -0.046875 3.726562 -0.105469 C 2.78125 -0.359375 2.707031 -0.390625 2.132812 -0.828125 L 2.132812 -0.917969 C 2.132812 -0.960938 2.089844 -1.035156 2.058594 -1.035156 L 2.058594 -1.171875 C 2.015625 -1.171875 2.015625 -1.21875 2.015625 -1.21875 L 1.96875 -1.171875 L 1.96875 -1.128906 L 1.925781 -1.128906 C 1.925781 -1.082031 1.878906 -1.082031 1.878906 -1.082031 C 1.832031 -1.128906 1.832031 -1.128906 1.832031 -1.171875 C 1.820312 -1.171875 1.699219 -1.066406 1.699219 -1.035156 C 1.667969 -1.082031 1.699219 -1.082031 1.667969 -1.128906 C 1.667969 -1.082031 1.546875 -1.066406 1.546875 -1.066406 C 1.367188 -1.15625 1.21875 -1.519531 1.097656 -1.726562 C 1.050781 -1.699219 1.007812 -1.699219 0.960938 -1.699219 C 0.902344 -1.863281 0.796875 -1.925781 0.722656 -1.925781 C 0.660156 -1.894531 0.617188 -1.820312 0.617188 -1.714844 C 0.617188 -1.667969 0.617188 -1.636719 0.632812 -1.59375 C 0.601562 -1.5625 0.601562 -1.53125 0.601562 -1.503906 C 0.644531 -1.324219 0.707031 -1.15625 0.765625 -1.007812 C 0.933594 -0.765625 0.917969 -0.40625 1.367188 0 C 1.847656 0.316406 2.195312 0.542969 2.554688 0.675781 C 2.886719 0.796875 3.171875 0.8125 3.441406 0.855469 C 3.578125 0.855469 3.699219 0.933594 3.832031 0.933594 C 4.734375 0.933594 5.9375 0.828125 6.613281 0.285156 C 6.957031 -0.046875 7.378906 -0.316406 7.605469 -0.8125 C 7.664062 -0.8125 7.605469 -0.886719 7.695312 -0.992188 L 7.695312 -1.035156 L 7.648438 -1.035156 C 7.769531 -1.429688 7.84375 -1.820312 7.84375 -2.179688 C 7.84375 -3.5625 7.050781 -4.976562 4.703125 -6.070312 C 3.488281 -6.644531 2.210938 -7.0625 2.210938 -7.964844 C 2.328125 -9.242188 3.789062 -9.605469 4.101562 -9.605469 C 4.375 -9.605469 4.433594 -9.515625 4.554688 -9.421875 L 4.554688 -9.304688 C 4.808594 -9.109375 5.035156 -9.46875 5.410156 -8.71875 C 5.425781 -8.703125 5.621094 -8.207031 5.621094 -8.207031 C 5.621094 -8.222656 5.90625 -7.363281 5.921875 -7.363281 C 6.222656 -7.140625 6.371094 -7.273438 6.449219 -7.394531 C 6.476562 -7.351562 6.507812 -7.351562 6.554688 -7.351562 Z M 6.523438 -7.5 C 6.523438 -7.453125 6.507812 -7.453125 6.476562 -7.46875 C 6.507812 -7.53125 6.523438 -7.558594 6.523438 -7.5 Z M 6.523438 -7.5 "/></g></g></g><g fill="#000000" fill-opacity="1"><g transform="translate(122.583956, 283.479941)"><g><path d="M 3.816406 -0.601562 C 3.816406 -0.527344 3.816406 -0.449219 3.800781 -0.34375 L 3.96875 0.136719 L 4.042969 0.285156 C 4.042969 0.375 4.074219 0.464844 4.089844 0.554688 L 4.164062 0.8125 C 4.222656 0.8125 4.207031 0.738281 4.285156 0.738281 C 4.296875 0.738281 4.3125 0.75 4.3125 0.75 L 4.359375 1.050781 C 4.433594 1.261719 4.449219 0.511719 4.480469 0.722656 C 4.523438 0.78125 4.523438 0.828125 4.539062 0.886719 L 4.660156 0.34375 L 4.660156 0.421875 C 4.660156 0.554688 4.703125 0.828125 4.882812 0.839844 C 4.929688 0.839844 4.988281 0.78125 5.019531 0.738281 L 5.066406 0.585938 C 5.066406 0.585938 5.050781 0.570312 5.050781 0.554688 C 5.050781 0.480469 5.246094 0.359375 5.246094 0.226562 L 5.246094 0.148438 C 5.289062 0.0898438 5.304688 0.03125 5.304688 -0.0742188 C 5.304688 -0.148438 5.289062 -0.210938 5.289062 -0.285156 C 5.289062 -0.40625 5.289062 -0.527344 5.320312 -0.644531 L 5.320312 -1.035156 C 5.320312 -1.15625 5.246094 -1.1875 5.246094 -1.335938 C 5.261719 -1.472656 5.246094 -1.519531 5.246094 -1.652344 C 5.230469 -1.683594 5.230469 -1.699219 5.230469 -1.714844 C 5.230469 -1.714844 5.261719 -1.773438 5.261719 -2.222656 C 5.261719 -2.976562 5.277344 -3.832031 5.335938 -4.464844 C 5.335938 -4.480469 5.351562 -4.523438 5.351562 -4.539062 C 5.378906 -4.71875 5.261719 -4.613281 5.457031 -4.75 C 5.695312 -5.15625 5.980469 -5.574219 6.222656 -5.9375 L 6.644531 -6.554688 L 6.867188 -6.898438 C 6.988281 -7.035156 7.09375 -7.214844 7.183594 -7.363281 L 7.304688 -7.53125 L 7.515625 -7.84375 L 7.949219 -8.507812 L 8.433594 -9.214844 C 8.523438 -9.332031 8.628906 -9.527344 8.628906 -9.695312 C 8.628906 -9.933594 8.476562 -10.28125 8.402344 -10.371094 C 8.296875 -10.3125 7.859375 -10.371094 7.800781 -10.054688 L 7.648438 -10.519531 L 7.019531 -9.484375 L 6.449219 -8.628906 C 6.207031 -8.222656 5.953125 -7.832031 5.726562 -7.546875 L 5.472656 -7.183594 L 5.019531 -6.539062 L 4.644531 -5.996094 C 4.480469 -6.238281 4.269531 -6.449219 4.101562 -6.671875 C 3.726562 -7.109375 3.382812 -7.558594 3.050781 -8.085938 L 3.050781 -8.070312 C 2.78125 -8.476562 2.480469 -8.882812 2.148438 -9.304688 C 2 -9.5 1.832031 -10.128906 1.714844 -10.371094 L 1.1875 -10.519531 C 0.886719 -10.609375 1.023438 -10.339844 0.496094 -10.234375 C 0.105469 -10.054688 0.0898438 -9.917969 0.285156 -9.621094 L 0.765625 -8.867188 C 0.886719 -8.6875 1.007812 -8.476562 1.128906 -8.328125 C 1.1875 -8.238281 1.246094 -8.175781 1.246094 -8.175781 L 1.246094 -8.191406 C 1.59375 -7.605469 2 -7.140625 2.375 -6.660156 L 2.886719 -5.996094 C 3.019531 -5.847656 3.109375 -5.710938 3.203125 -5.589844 L 3.578125 -5.15625 C 3.636719 -5.109375 3.699219 -4.988281 3.789062 -4.882812 C 3.832031 -4.808594 3.847656 -4.78125 3.953125 -4.675781 C 3.90625 -3.996094 3.863281 -3.230469 3.863281 -2.539062 C 3.863281 -1.820312 3.847656 -1.203125 3.816406 -0.601562 Z M 4.148438 -4.464844 L 4.011719 -4.585938 C 4.042969 -4.554688 4.101562 -4.523438 4.148438 -4.464844 Z M 4.148438 -4.464844 "/></g></g></g><g fill="#000000" fill-opacity="1"><g transform="translate(139.672536, 283.479941)"><g/></g></g><g fill="#000000" fill-opacity="1"><g transform="translate(150.992127, 283.479941)"><g><path d="M 0.632812 0.332031 C 0.644531 0.332031 0.722656 0.285156 0.738281 0.269531 C 0.738281 0.285156 0.722656 0.316406 0.722656 0.332031 C 0.722656 0.40625 0.78125 0.449219 0.828125 0.449219 C 0.945312 0.449219 0.871094 0.316406 1.140625 0.316406 C 1.203125 0.316406 1.277344 0.316406 1.292969 0.300781 C 1.292969 0.300781 1.308594 0.316406 1.324219 0.316406 C 1.335938 0.179688 1.398438 0.03125 1.457031 -0.0898438 L 1.53125 -0.253906 C 1.625 -0.390625 1.757812 -0.691406 1.789062 -0.886719 C 1.789062 -0.902344 1.773438 -0.917969 1.773438 -0.933594 L 1.804688 -1.1875 C 1.820312 -1.367188 2.027344 -1.925781 2.089844 -2.375 L 2.179688 -2.75 L 2.539062 -2.707031 C 2.539062 -2.691406 2.523438 -2.855469 2.628906 -2.824219 C 2.691406 -2.824219 2.902344 -2.796875 3.007812 -2.796875 C 2.992188 -2.796875 2.992188 -2.78125 2.992188 -2.78125 C 3.140625 -2.75 3.277344 -2.75 3.425781 -2.75 C 3.605469 -2.75 3.878906 -2.796875 3.953125 -2.796875 C 4.027344 -2.796875 4.042969 -2.824219 4.089844 -2.824219 C 4.328125 -2.824219 4.734375 -2.75 4.976562 -2.75 C 5.109375 -2.75 5.15625 -2.511719 5.230469 -2.511719 C 5.367188 -2.464844 5.515625 -2.449219 5.679688 -2.417969 L 6.238281 -2.34375 C 6.371094 -2.316406 6.433594 -2.058594 6.523438 -1.773438 C 6.582031 -1.667969 6.628906 -1.625 6.628906 -1.503906 L 6.71875 -1.335938 C 6.671875 -1.292969 6.824219 -1.261719 6.824219 -1.097656 C 6.824219 -1.066406 6.867188 -0.933594 6.898438 -0.902344 L 7.035156 -0.632812 C 7.050781 -0.632812 7.078125 -0.644531 7.09375 -0.660156 C 7.125 -0.554688 7.378906 0.449219 7.394531 0.449219 C 7.753906 0.449219 7.605469 0.375 8.070312 0.375 C 8.070312 0.449219 8.355469 0.449219 8.535156 0.179688 C 8.566406 0.179688 8.582031 0.242188 8.613281 0.242188 C 8.65625 0.242188 8.71875 0.195312 8.71875 0.0898438 L 8.71875 0.0585938 C 8.71875 0.03125 8.71875 0.03125 8.746094 0.03125 L 8.746094 -0.300781 C 8.746094 -0.542969 8.671875 -0.675781 8.597656 -0.917969 C 8.597656 -0.933594 8.613281 -0.945312 8.613281 -0.960938 C 8.613281 -0.992188 8.476562 -1.335938 8.070312 -2.195312 L 7.832031 -2.886719 C 7.515625 -3.789062 7.273438 -4.570312 7.019531 -5.320312 L 6.839844 -5.863281 C 6.628906 -6.371094 6.566406 -6.957031 6.34375 -7.425781 C 6.328125 -7.425781 6.3125 -7.410156 6.3125 -7.410156 C 6.253906 -7.816406 5.90625 -8.476562 5.710938 -8.792969 C 5.515625 -9.109375 5.335938 -9.410156 5.183594 -9.679688 L 5.050781 -9.917969 C 5.003906 -9.980469 4.960938 -10.054688 4.792969 -10.128906 C 4.792969 -10.113281 4.78125 -10.113281 4.78125 -10.101562 C 4.78125 -10.191406 4.480469 -10.355469 4.296875 -10.476562 C 4.238281 -10.460938 4.207031 -10.445312 4.195312 -10.429688 C 4.164062 -10.507812 4.089844 -10.597656 3.984375 -10.597656 C 3.921875 -10.597656 3.894531 -10.535156 3.847656 -10.476562 L 3.605469 -10.039062 C 3.488281 -9.980469 3.425781 -9.828125 3.335938 -9.769531 L 3.140625 -9.320312 C 3.035156 -9.09375 2.960938 -8.746094 2.855469 -8.703125 C 2.855469 -8.671875 2.871094 -8.65625 2.871094 -8.65625 C 2.839844 -8.582031 2.839844 -8.507812 2.8125 -8.445312 L 2.707031 -8.070312 C 2.417969 -7.351562 2.375 -6.839844 2.164062 -6.117188 L 1.683594 -4.449219 C 1.519531 -3.800781 1.324219 -3.90625 1.324219 -3.757812 C 1.398438 -3.710938 1.382812 -3.742188 1.457031 -3.636719 C 1.292969 -3.007812 1.128906 -2.042969 0.839844 -1.171875 L 0.722656 -0.722656 C 0.738281 -0.722656 0.644531 -0.707031 0.644531 -0.675781 C 0.644531 -0.675781 0.660156 -0.660156 0.660156 -0.644531 C 0.644531 -0.542969 0.601562 -0.421875 0.585938 -0.34375 L 0.449219 -0.105469 C 0.449219 -0.046875 0.449219 -0.015625 0.480469 0 L 0.480469 0.03125 C 0.464844 0.046875 0.464844 0.0585938 0.464844 0.0742188 C 0.464844 0.121094 0.617188 0.164062 0.601562 0.164062 C 0.617188 0.164062 0.632812 0.148438 0.660156 0.136719 Z M 5.785156 -3.304688 L 5.546875 -3.304688 L 4.882812 -3.398438 C 4.417969 -3.425781 3.773438 -3.441406 3.214844 -3.605469 C 3.171875 -3.605469 3.097656 -3.59375 3.035156 -3.59375 C 2.871094 -3.59375 2.34375 -3.605469 2.34375 -3.683594 C 2.34375 -4.058594 2.691406 -4.945312 2.824219 -5.394531 C 2.929688 -5.773438 3.066406 -6.117188 3.171875 -6.449219 C 3.246094 -6.523438 3.53125 -7.558594 3.53125 -7.53125 C 3.621094 -7.726562 3.742188 -8.265625 3.847656 -8.492188 L 3.9375 -8.671875 L 4.570312 -7.351562 C 5.003906 -6.191406 5.019531 -6.101562 5.304688 -5.035156 L 5.394531 -4.765625 C 5.457031 -4.585938 5.5 -4.402344 5.5625 -4.238281 L 5.816406 -3.351562 C 5.816406 -3.335938 5.816406 -3.335938 5.785156 -3.304688 Z M 5.785156 -3.304688 "/></g></g></g><g fill="#000000" fill-opacity="1"><g transform="translate(168.501368, 283.479941)"><g><path d="M 6.554688 -7.351562 C 6.660156 -7.351562 6.734375 -7.484375 6.75 -7.589844 C 7.125 -10.070312 5.367188 -10.476562 4.960938 -10.609375 L 4.914062 -10.609375 C 4.78125 -10.609375 4.507812 -10.640625 4.390625 -10.703125 C 4.390625 -10.703125 4.390625 -10.65625 4.34375 -10.65625 C 4.253906 -10.671875 4.164062 -10.671875 4.074219 -10.671875 C 2.601562 -10.671875 1.261719 -9.5 0.976562 -8.117188 C 0.976562 -7.605469 1.035156 -7.304688 1.457031 -6.660156 C 2.238281 -5.816406 3.214844 -5.320312 4.101562 -4.792969 C 5.199219 -4.132812 6.433594 -3.351562 6.433594 -2 C 6.433594 -0.691406 5.710938 -0.121094 4.449219 -0.046875 C 4.207031 -0.046875 3.953125 -0.046875 3.726562 -0.105469 C 2.78125 -0.359375 2.707031 -0.390625 2.132812 -0.828125 L 2.132812 -0.917969 C 2.132812 -0.960938 2.089844 -1.035156 2.058594 -1.035156 L 2.058594 -1.171875 C 2.015625 -1.171875 2.015625 -1.21875 2.015625 -1.21875 L 1.96875 -1.171875 L 1.96875 -1.128906 L 1.925781 -1.128906 C 1.925781 -1.082031 1.878906 -1.082031 1.878906 -1.082031 C 1.832031 -1.128906 1.832031 -1.128906 1.832031 -1.171875 C 1.820312 -1.171875 1.699219 -1.066406 1.699219 -1.035156 C 1.667969 -1.082031 1.699219 -1.082031 1.667969 -1.128906 C 1.667969 -1.082031 1.546875 -1.066406 1.546875 -1.066406 C 1.367188 -1.15625 1.21875 -1.519531 1.097656 -1.726562 C 1.050781 -1.699219 1.007812 -1.699219 0.960938 -1.699219 C 0.902344 -1.863281 0.796875 -1.925781 0.722656 -1.925781 C 0.660156 -1.894531 0.617188 -1.820312 0.617188 -1.714844 C 0.617188 -1.667969 0.617188 -1.636719 0.632812 -1.59375 C 0.601562 -1.5625 0.601562 -1.53125 0.601562 -1.503906 C 0.644531 -1.324219 0.707031 -1.15625 0.765625 -1.007812 C 0.933594 -0.765625 0.917969 -0.40625 1.367188 0 C 1.847656 0.316406 2.195312 0.542969 2.554688 0.675781 C 2.886719 0.796875 3.171875 0.8125 3.441406 0.855469 C 3.578125 0.855469 3.699219 0.933594 3.832031 0.933594 C 4.734375 0.933594 5.9375 0.828125 6.613281 0.285156 C 6.957031 -0.046875 7.378906 -0.316406 7.605469 -0.8125 C 7.664062 -0.8125 7.605469 -0.886719 7.695312 -0.992188 L 7.695312 -1.035156 L 7.648438 -1.035156 C 7.769531 -1.429688 7.84375 -1.820312 7.84375 -2.179688 C 7.84375 -3.5625 7.050781 -4.976562 4.703125 -6.070312 C 3.488281 -6.644531 2.210938 -7.0625 2.210938 -7.964844 C 2.328125 -9.242188 3.789062 -9.605469 4.101562 -9.605469 C 4.375 -9.605469 4.433594 -9.515625 4.554688 -9.421875 L 4.554688 -9.304688 C 4.808594 -9.109375 5.035156 -9.46875 5.410156 -8.71875 C 5.425781 -8.703125 5.621094 -8.207031 5.621094 -8.207031 C 5.621094 -8.222656 5.90625 -7.363281 5.921875 -7.363281 C 6.222656 -7.140625 6.371094 -7.273438 6.449219 -7.394531 C 6.476562 -7.351562 6.507812 -7.351562 6.554688 -7.351562 Z M 6.523438 -7.5 C 6.523438 -7.453125 6.507812 -7.453125 6.476562 -7.46875 C 6.507812 -7.53125 6.523438 -7.558594 6.523438 -7.5 Z M 6.523438 -7.5 "/></g></g></g><g fill="#000000" fill-opacity="1"><g transform="translate(185.259432, 283.479941)"><g/></g></g><g fill="#000000" fill-opacity="1"><g transform="translate(196.579023, 283.479941)"><g><path d="M 0.632812 0.332031 C 0.644531 0.332031 0.722656 0.285156 0.738281 0.269531 C 0.738281 0.285156 0.722656 0.316406 0.722656 0.332031 C 0.722656 0.40625 0.78125 0.449219 0.828125 0.449219 C 0.945312 0.449219 0.871094 0.316406 1.140625 0.316406 C 1.203125 0.316406 1.277344 0.316406 1.292969 0.300781 C 1.292969 0.300781 1.308594 0.316406 1.324219 0.316406 C 1.335938 0.179688 1.398438 0.03125 1.457031 -0.0898438 L 1.53125 -0.253906 C 1.625 -0.390625 1.757812 -0.691406 1.789062 -0.886719 C 1.789062 -0.902344 1.773438 -0.917969 1.773438 -0.933594 L 1.804688 -1.1875 C 1.820312 -1.367188 2.027344 -1.925781 2.089844 -2.375 L 2.179688 -2.75 L 2.539062 -2.707031 C 2.539062 -2.691406 2.523438 -2.855469 2.628906 -2.824219 C 2.691406 -2.824219 2.902344 -2.796875 3.007812 -2.796875 C 2.992188 -2.796875 2.992188 -2.78125 2.992188 -2.78125 C 3.140625 -2.75 3.277344 -2.75 3.425781 -2.75 C 3.605469 -2.75 3.878906 -2.796875 3.953125 -2.796875 C 4.027344 -2.796875 4.042969 -2.824219 4.089844 -2.824219 C 4.328125 -2.824219 4.734375 -2.75 4.976562 -2.75 C 5.109375 -2.75 5.15625 -2.511719 5.230469 -2.511719 C 5.367188 -2.464844 5.515625 -2.449219 5.679688 -2.417969 L 6.238281 -2.34375 C 6.371094 -2.316406 6.433594 -2.058594 6.523438 -1.773438 C 6.582031 -1.667969 6.628906 -1.625 6.628906 -1.503906 L 6.71875 -1.335938 C 6.671875 -1.292969 6.824219 -1.261719 6.824219 -1.097656 C 6.824219 -1.066406 6.867188 -0.933594 6.898438 -0.902344 L 7.035156 -0.632812 C 7.050781 -0.632812 7.078125 -0.644531 7.09375 -0.660156 C 7.125 -0.554688 7.378906 0.449219 7.394531 0.449219 C 7.753906 0.449219 7.605469 0.375 8.070312 0.375 C 8.070312 0.449219 8.355469 0.449219 8.535156 0.179688 C 8.566406 0.179688 8.582031 0.242188 8.613281 0.242188 C 8.65625 0.242188 8.71875 0.195312 8.71875 0.0898438 L 8.71875 0.0585938 C 8.71875 0.03125 8.71875 0.03125 8.746094 0.03125 L 8.746094 -0.300781 C 8.746094 -0.542969 8.671875 -0.675781 8.597656 -0.917969 C 8.597656 -0.933594 8.613281 -0.945312 8.613281 -0.960938 C 8.613281 -0.992188 8.476562 -1.335938 8.070312 -2.195312 L 7.832031 -2.886719 C 7.515625 -3.789062 7.273438 -4.570312 7.019531 -5.320312 L 6.839844 -5.863281 C 6.628906 -6.371094 6.566406 -6.957031 6.34375 -7.425781 C 6.328125 -7.425781 6.3125 -7.410156 6.3125 -7.410156 C 6.253906 -7.816406 5.90625 -8.476562 5.710938 -8.792969 C 5.515625 -9.109375 5.335938 -9.410156 5.183594 -9.679688 L 5.050781 -9.917969 C 5.003906 -9.980469 4.960938 -10.054688 4.792969 -10.128906 C 4.792969 -10.113281 4.78125 -10.113281 4.78125 -10.101562 C 4.78125 -10.191406 4.480469 -10.355469 4.296875 -10.476562 C 4.238281 -10.460938 4.207031 -10.445312 4.195312 -10.429688 C 4.164062 -10.507812 4.089844 -10.597656 3.984375 -10.597656 C 3.921875 -10.597656 3.894531 -10.535156 3.847656 -10.476562 L 3.605469 -10.039062 C 3.488281 -9.980469 3.425781 -9.828125 3.335938 -9.769531 L 3.140625 -9.320312 C 3.035156 -9.09375 2.960938 -8.746094 2.855469 -8.703125 C 2.855469 -8.671875 2.871094 -8.65625 2.871094 -8.65625 C 2.839844 -8.582031 2.839844 -8.507812 2.8125 -8.445312 L 2.707031 -8.070312 C 2.417969 -7.351562 2.375 -6.839844 2.164062 -6.117188 L 1.683594 -4.449219 C 1.519531 -3.800781 1.324219 -3.90625 1.324219 -3.757812 C 1.398438 -3.710938 1.382812 -3.742188 1.457031 -3.636719 C 1.292969 -3.007812 1.128906 -2.042969 0.839844 -1.171875 L 0.722656 -0.722656 C 0.738281 -0.722656 0.644531 -0.707031 0.644531 -0.675781 C 0.644531 -0.675781 0.660156 -0.660156 0.660156 -0.644531 C 0.644531 -0.542969 0.601562 -0.421875 0.585938 -0.34375 L 0.449219 -0.105469 C 0.449219 -0.046875 0.449219 -0.015625 0.480469 0 L 0.480469 0.03125 C 0.464844 0.046875 0.464844 0.0585938 0.464844 0.0742188 C 0.464844 0.121094 0.617188 0.164062 0.601562 0.164062 C 0.617188 0.164062 0.632812 0.148438 0.660156 0.136719 Z M 5.785156 -3.304688 L 5.546875 -3.304688 L 4.882812 -3.398438 C 4.417969 -3.425781 3.773438 -3.441406 3.214844 -3.605469 C 3.171875 -3.605469 3.097656 -3.59375 3.035156 -3.59375 C 2.871094 -3.59375 2.34375 -3.605469 2.34375 -3.683594 C 2.34375 -4.058594 2.691406 -4.945312 2.824219 -5.394531 C 2.929688 -5.773438 3.066406 -6.117188 3.171875 -6.449219 C 3.246094 -6.523438 3.53125 -7.558594 3.53125 -7.53125 C 3.621094 -7.726562 3.742188 -8.265625 3.847656 -8.492188 L 3.9375 -8.671875 L 4.570312 -7.351562 C 5.003906 -6.191406 5.019531 -6.101562 5.304688 -5.035156 L 5.394531 -4.765625 C 5.457031 -4.585938 5.5 -4.402344 5.5625 -4.238281 L 5.816406 -3.351562 C 5.816406 -3.335938 5.816406 -3.335938 5.785156 -3.304688 Z M 5.785156 -3.304688 "/></g></g></g><g fill="#000000" fill-opacity="1"><g transform="translate(214.088264, 283.479941)"><g><path d="M 7.5 -10.3125 C 7.53125 -10.265625 7.546875 -10.191406 7.558594 -10.160156 C 7.484375 -10.160156 7.441406 -10.25 7.425781 -10.25 L 7.394531 -10.597656 C 7.394531 -10.714844 7.167969 -10.296875 7.167969 -10.355469 L 7.140625 -10.386719 C 7.109375 -10.445312 7.0625 -10.507812 6.988281 -10.519531 C 6.75 -10.476562 6.855469 -10.101562 6.777344 -10.011719 C 6.761719 -9.980469 6.761719 -9.949219 6.761719 -9.949219 C 6.761719 -9.875 6.734375 -9.859375 6.734375 -9.816406 L 6.734375 -9.738281 C 6.644531 -9.0625 6.613281 -7.890625 6.613281 -6.882812 C 6.613281 -6.359375 6.628906 -5.875 6.628906 -5.5625 C 6.628906 -5.304688 6.644531 -4.988281 6.660156 -4.675781 L 6.660156 -4.6875 C 6.671875 -4.253906 6.671875 -3.832031 6.671875 -3.457031 C 6.660156 -3.304688 6.644531 -3.109375 6.644531 -2.929688 L 6.644531 -2.464844 L 6.164062 -2.824219 L 5.96875 -3.203125 L 5.96875 -3.214844 L 5.847656 -3.457031 C 5.726562 -3.636719 5.605469 -3.894531 5.472656 -4.179688 L 5.140625 -4.871094 C 5.003906 -5.09375 4.824219 -5.484375 4.660156 -5.832031 C 4.554688 -6.148438 4.402344 -6.507812 4.253906 -6.824219 L 4.011719 -7.351562 L 3.878906 -7.574219 L 3.816406 -7.679688 C 3.742188 -7.90625 3.605469 -8.191406 3.503906 -8.355469 C 3.441406 -8.476562 3.367188 -8.597656 3.320312 -8.734375 C 3.246094 -8.851562 3.140625 -9.078125 3.050781 -9.304688 C 2.960938 -9.527344 2.75 -9.933594 2.601562 -10.21875 C 2.480469 -10.265625 2.164062 -10.761719 2.015625 -10.761719 C 1.96875 -10.761719 1.910156 -10.746094 1.832031 -10.746094 L 1.683594 -10.746094 C 1.457031 -10.746094 1.261719 -10.671875 1.023438 -10.625 L 1.023438 -10.597656 C 1.082031 -10.550781 1.113281 -10.476562 1.113281 -10.402344 C 1.113281 -10.371094 1.097656 -10.339844 1.097656 -10.324219 C 1.113281 -10.296875 1.113281 -10.234375 1.128906 -10.175781 C 1.113281 -10.054688 1.066406 -10.085938 0.902344 -10.039062 C 1.023438 -9.90625 1.113281 -9.453125 1.113281 -9.257812 L 1.113281 -7.394531 C 1.113281 -6.839844 1.097656 -6.28125 1.066406 -5.726562 L 1.023438 -4.613281 L 1.023438 -2.585938 C 1.023438 -2.179688 1.007812 -1.726562 0.992188 -1.277344 C 1.007812 -0.839844 0.992188 0.796875 1.292969 0.796875 C 1.351562 0.796875 1.414062 0.75 1.414062 0.644531 C 1.414062 0.617188 1.414062 0.585938 1.398438 0.542969 L 1.429688 0.496094 C 1.441406 0.527344 1.472656 0.527344 1.503906 0.527344 C 1.53125 0.527344 1.5625 0.511719 1.59375 0.496094 C 1.609375 0.511719 1.683594 0.75 1.699219 0.75 C 1.699219 0.570312 1.984375 0.511719 2 0.300781 C 2 0.300781 1.984375 -0.226562 2 -0.210938 L 1.953125 -1.261719 C 1.953125 -1.292969 2 -1.308594 2 -1.351562 L 2 -1.429688 C 2 -1.441406 2 -1.441406 2.015625 -1.519531 L 2.042969 -1.96875 C 2.042969 -2.179688 2.027344 -2.433594 2.015625 -2.628906 C 2 -2.824219 2 -2.992188 2 -3.203125 C 2 -3.96875 2 -4.703125 2.042969 -5.457031 C 2.074219 -6.117188 2.089844 -6.792969 2.089844 -7.453125 L 2.195312 -7.257812 C 2.375 -6.929688 2.539062 -6.644531 2.707031 -6.3125 L 2.691406 -6.328125 C 2.871094 -5.890625 3.410156 -5.378906 3.605469 -4.976562 C 4.011719 -4.195312 4.507812 -3.15625 4.871094 -2.390625 C 5.125 -1.925781 5.378906 -1.457031 5.605469 -0.976562 C 5.679688 -0.828125 5.847656 -0.617188 5.96875 -0.464844 C 6.070312 -0.332031 6.148438 -0.210938 6.222656 -0.0585938 C 6.417969 0.4375 7.0625 0.464844 7.394531 0.148438 C 7.574219 -0.046875 7.648438 -0.332031 7.648438 -0.660156 C 7.648438 -0.796875 7.636719 -1.023438 7.621094 -1.1875 C 7.605469 -1.429688 7.574219 -1.699219 7.605469 -1.863281 C 7.648438 -2.164062 7.648438 -2.496094 7.648438 -2.839844 C 7.648438 -3.097656 7.648438 -3.304688 7.664062 -3.53125 L 7.664062 -3.515625 C 7.695312 -3.9375 7.695312 -4.417969 7.695312 -4.898438 C 7.695312 -5.441406 7.695312 -5.996094 7.679688 -6.554688 C 7.664062 -7.035156 7.648438 -7.53125 7.648438 -7.996094 C 7.648438 -8.613281 7.710938 -9.738281 7.742188 -10.296875 Z M 7.5 -10.3125 "/></g></g></g><g fill="#000000" fill-opacity="1"><g transform="translate(231.041632, 283.479941)"><g/></g></g><g fill="#000000" fill-opacity="1"><g transform="translate(242.361223, 283.479941)"><g><path d="M 8.085938 -10.054688 C 8.054688 -10.113281 8.027344 -10.21875 8.027344 -10.28125 C 8.027344 -10.265625 7.996094 -10.265625 7.996094 -10.265625 L 7.996094 -10.207031 C 7.996094 -10.113281 7.949219 -10.070312 7.921875 -10.070312 L 7.84375 -10.175781 L 7.84375 -10.144531 L 7.816406 -10.144531 C 7.816406 -10.144531 7.800781 -10.175781 7.785156 -10.175781 C 7.289062 -10.730469 7.273438 -10.128906 7.246094 -10.296875 L 7.214844 -10.296875 C 7.199219 -10.3125 7.167969 -10.3125 7.152344 -10.3125 L 7.035156 -10.3125 C 6.808594 -10.3125 6.777344 -9.136719 6.777344 -8.824219 C 6.792969 -8.703125 6.808594 -8.386719 6.824219 -8.339844 L 6.824219 -7.890625 C 6.808594 -7.441406 6.777344 -7.0625 6.75 -6.6875 C 6.71875 -6.3125 6.671875 -5.921875 6.660156 -5.5 L 6.554688 -4.78125 C 6.328125 -3.097656 5.996094 -0.902344 4.597656 -0.8125 C 4.554688 -0.8125 4.480469 -0.828125 4.417969 -0.855469 L 4.296875 -0.902344 L 4.179688 -0.960938 L 4.222656 -0.945312 C 4.042969 -1.023438 3.878906 -1.113281 3.800781 -1.203125 C 3.683594 -1.367188 3.546875 -1.59375 3.398438 -1.820312 L 3.398438 -1.804688 L 3.1875 -2.164062 L 3.203125 -2.132812 C 2.886719 -2.691406 2.71875 -3.109375 2.613281 -3.742188 L 2.496094 -4.554688 L 2.390625 -5.199219 L 2.40625 -5.183594 L 2.359375 -5.472656 C 2.300781 -5.847656 2.269531 -6.164062 2.269531 -6.507812 L 2.269531 -8.328125 C 2.269531 -8.355469 2.300781 -8.597656 2.316406 -8.835938 L 2.222656 -8.808594 L 2.433594 -9.046875 C 2.417969 -9.078125 2.417969 -9.109375 2.390625 -9.109375 L 2.328125 -9.167969 C 2.285156 -9.289062 2.195312 -9.574219 2.195312 -9.769531 L 2.195312 -9.90625 C 2.195312 -10.191406 2.074219 -10.402344 2.015625 -10.402344 L 2.015625 -10.460938 C 2.015625 -10.507812 2 -10.535156 1.953125 -10.550781 C 1.863281 -10.550781 1.742188 -10.476562 1.699219 -10.414062 C 1.683594 -10.445312 1.59375 -10.445312 1.546875 -10.476562 C 1.53125 -10.460938 1.519531 -10.460938 1.519531 -10.460938 C 1.488281 -10.460938 1.503906 -10.492188 1.457031 -10.492188 C 1.398438 -10.492188 1.367188 -10.25 1.351562 -10.160156 L 1.324219 -10.191406 C 1.261719 -10.191406 1.277344 -10.265625 1.171875 -10.355469 C 1.140625 -10.28125 1.007812 -10.101562 1.007812 -9.859375 L 1.007812 -9.605469 L 0.976562 -8.550781 C 0.960938 -8.238281 0.933594 -7.921875 0.933594 -7.558594 L 0.933594 -7.425781 C 0.917969 -7.125 0.902344 -6.839844 0.902344 -6.566406 C 0.902344 -6.296875 0.917969 -6.027344 0.945312 -5.757812 L 0.992188 -5.367188 C 1.050781 -5.035156 1.113281 -4.675781 1.140625 -4.328125 C 1.261719 -3.441406 1.414062 -2.8125 1.714844 -1.96875 C 2.164062 -0.828125 2.796875 0.136719 3.996094 0.554688 C 4.148438 0.570312 4.238281 0.585938 4.507812 0.585938 C 7.257812 0.585938 7.621094 -2.496094 7.90625 -4.75 L 7.980469 -5.378906 C 7.996094 -5.785156 8.027344 -6.175781 8.054688 -6.523438 C 8.085938 -6.972656 8.117188 -7.441406 8.132812 -7.949219 L 8.132812 -8.265625 Z M 8.085938 -10.054688 "/></g></g></g><g fill="#000000" fill-opacity="1"><g transform="translate(259.705201, 283.479941)"><g><path d="M 2.300781 0.332031 C 3.125 0.316406 3.800781 0.0585938 4.507812 -0.210938 L 4.449219 -0.195312 C 4.675781 -0.285156 4.734375 -0.332031 4.839844 -0.375 L 4.988281 -0.464844 C 5.546875 -0.722656 6.132812 -0.992188 6.613281 -1.351562 C 6.898438 -1.5625 7.183594 -1.804688 7.441406 -2.164062 C 7.875 -2.796875 8.191406 -3.472656 8.207031 -4.253906 C 8.222656 -4.855469 8.160156 -5.457031 8.011719 -6.058594 L 8.011719 -6.085938 C 7.921875 -6.34375 7.832031 -6.613281 7.664062 -6.957031 C 7.425781 -7.425781 7.167969 -7.816406 6.945312 -8.132812 L 6.957031 -8.117188 C 6.839844 -8.3125 6.644531 -8.550781 6.417969 -8.746094 C 5.875 -9.273438 5.199219 -9.710938 4.507812 -9.964844 L 3.515625 -10.324219 C 3.140625 -10.460938 2.691406 -10.550781 2.285156 -10.640625 L 2.300781 -10.640625 C 2.074219 -10.714844 1.636719 -10.714844 1.429688 -10.640625 C 1.773438 -10.703125 0.992188 -10.492188 0.945312 -10.460938 C 0.75 -10.011719 1.5625 -10.535156 1.023438 -9.289062 C 1.007812 -9.257812 0.992188 -9.183594 0.992188 -9.125 C 0.992188 -9.003906 0.960938 -8.6875 0.960938 -8.6875 C 0.960938 -8.296875 0.960938 -7.710938 0.976562 -7.304688 C 0.976562 -7.183594 0.976562 -6.882812 0.992188 -6.777344 C 0.992188 -6.492188 1.007812 -6.175781 1.007812 -5.921875 C 0.992188 -5.785156 0.992188 -5.574219 0.992188 -5.425781 L 0.992188 -4.628906 C 0.992188 -4.296875 1.007812 -3.863281 1.023438 -3.53125 L 1.066406 -2.449219 C 1.066406 -2.164062 1.097656 -1.894531 1.113281 -1.667969 C 1.140625 -1.429688 1.171875 -1.128906 1.15625 -0.917969 C 1.15625 -0.75 1.140625 -0.585938 1.113281 -0.421875 C 1.113281 -0.164062 1.398438 0.300781 1.398438 0.300781 C 1.59375 0.421875 1.847656 0.511719 2.164062 0.226562 Z M 2.433594 -1.097656 L 2.433594 -2.316406 C 2.433594 -2.496094 2.433594 -2.71875 2.417969 -2.902344 L 2.417969 -2.886719 C 2.40625 -3.125 2.390625 -3.367188 2.40625 -3.605469 C 2.40625 -3.921875 2.390625 -4.3125 2.359375 -4.660156 L 2.359375 -4.644531 C 2.328125 -5.066406 2.300781 -5.515625 2.316406 -5.96875 C 2.316406 -6.191406 2.300781 -6.417969 2.300781 -6.644531 L 2.300781 -8.175781 C 2.300781 -8.328125 2.316406 -8.476562 2.316406 -8.613281 C 2.328125 -8.761719 2.34375 -8.957031 2.34375 -9.136719 L 2.496094 -9.136719 C 2.78125 -9.125 3.097656 -9.109375 3.214844 -9.0625 C 3.921875 -8.851562 4.585938 -8.550781 5.183594 -8.070312 C 5.425781 -7.890625 5.621094 -7.710938 5.726562 -7.558594 C 6.117188 -6.988281 6.898438 -6.253906 7.078125 -5.5625 L 7.078125 -5.574219 L 7.167969 -4.988281 L 7.167969 -5.003906 L 7.214844 -4.628906 C 7.230469 -4.539062 7.183594 -4.375 7.140625 -4.195312 L 7.0625 -3.847656 C 6.929688 -3.261719 6.175781 -2.480469 5.667969 -2.132812 L 5.679688 -2.132812 C 5.546875 -2.042969 5.351562 -1.953125 5.140625 -1.863281 L 4.792969 -1.699219 L 4.839844 -1.699219 C 4.539062 -1.578125 4.253906 -1.441406 3.921875 -1.15625 L 3.96875 -1.21875 L 3.953125 -1.21875 C 3.636719 -1.066406 3.304688 -1.246094 2.945312 -1.1875 L 2.929688 -1.1875 Z M 2.433594 -1.097656 "/></g></g></g><g fill="#000000" fill-opacity="1"><g transform="translate(276.913955, 283.479941)"><g><path d="M 1.128906 -6.808594 C 0.839844 -6.328125 0.675781 -5.980469 0.675781 -5.605469 L 0.675781 -5.367188 C 0.675781 -5.261719 0.675781 -5.140625 0.707031 -5.019531 C 0.691406 -4.792969 0.691406 -4.570312 0.691406 -4.328125 C 0.839844 -3.441406 0.855469 -2.601562 1.335938 -1.714844 C 1.414062 -1.441406 1.667969 -1.082031 1.804688 -0.917969 C 2.34375 -0.253906 2.902344 0.449219 3.894531 0.632812 L 3.96875 0.632812 C 4.179688 0.707031 4.464844 0.78125 4.703125 0.78125 L 4.929688 0.78125 C 5.230469 0.78125 5.679688 0.8125 5.890625 0.601562 L 5.921875 0.601562 L 6.042969 0.554688 C 6.929688 0.285156 7.621094 -0.886719 7.664062 -0.945312 C 7.664062 -1.082031 7.710938 -0.796875 8.085938 -1.609375 L 8.160156 -1.832031 C 8.371094 -2.238281 8.417969 -2.480469 8.523438 -2.839844 L 8.65625 -3.320312 C 8.777344 -3.757812 8.867188 -4.359375 8.882812 -4.660156 C 8.882812 -4.765625 8.867188 -4.871094 8.851562 -4.988281 C 8.851562 -5.019531 8.898438 -5.050781 8.898438 -5.109375 L 8.898438 -5.183594 C 8.929688 -5.214844 8.929688 -5.246094 8.929688 -5.277344 L 8.929688 -5.335938 C 8.882812 -5.800781 8.792969 -6.34375 8.65625 -6.824219 C 8.597656 -7.167969 8.371094 -7.84375 8.191406 -8.144531 C 8.191406 -8.160156 8.101562 -8.238281 8.027344 -8.417969 L 7.921875 -8.492188 C 7.9375 -8.492188 7.785156 -8.597656 7.726562 -8.640625 C 7.710938 -8.65625 7.515625 -8.761719 7.515625 -8.792969 L 7.335938 -9.257812 L 7.304688 -9.257812 C 7.304688 -9.304688 7.167969 -9.347656 7.167969 -9.410156 C 7.167969 -9.421875 7.167969 -9.4375 7.183594 -9.453125 L 7.140625 -9.453125 C 6.839844 -9.90625 6.402344 -10.324219 5.90625 -10.519531 C 5.816406 -10.519531 5.742188 -10.730469 5.320312 -10.835938 C 5.09375 -10.898438 4.960938 -10.925781 4.765625 -10.941406 C 4.585938 -10.941406 4.402344 -10.910156 4.207031 -10.851562 C 4.195312 -10.851562 4.164062 -10.882812 4.164062 -10.882812 C 4.148438 -10.882812 4.101562 -10.851562 4.101562 -10.835938 L 3.878906 -10.835938 C 3.847656 -10.804688 3.816406 -10.804688 3.789062 -10.804688 C 3.773438 -10.804688 3.773438 -10.804688 3.742188 -10.835938 L 3.742188 -10.867188 C 3.699219 -10.867188 3.699219 -10.835938 3.699219 -10.835938 C 3.710938 -10.820312 3.710938 -10.820312 3.710938 -10.804688 C 3.710938 -10.746094 2.765625 -10.355469 2.34375 -9.875 C 1.9375 -9.410156 1.699219 -8.761719 1.457031 -8.222656 C 1.21875 -7.695312 1.1875 -7.289062 1.128906 -6.808594 Z M 4.882812 -9.421875 L 4.898438 -9.421875 C 4.960938 -9.421875 5.109375 -9.273438 5.199219 -9.273438 C 6.417969 -9.273438 6.914062 -7.785156 7.214844 -6.808594 L 7.214844 -6.777344 C 7.230469 -6.582031 7.726562 -5.109375 7.546875 -3.382812 C 7.546875 -3.382812 7.515625 -3.351562 7.515625 -3.320312 C 7.515625 -3.320312 7.5 -3.335938 7.5 -3.351562 L 7.378906 -3.230469 C 7.363281 -3.246094 7.351562 -3.246094 7.351562 -3.261719 C 7.246094 -2.71875 7.183594 -2.375 7.050781 -1.953125 L 6.957031 -1.820312 L 6.839844 -1.742188 L 6.839844 -1.773438 C 6.402344 -1.1875 6.296875 -0.933594 5.679688 -0.765625 C 5.667969 -0.765625 5.652344 -0.738281 5.636719 -0.738281 C 5.230469 -0.617188 4.882812 -0.40625 4.402344 -0.40625 C 2.886719 -0.601562 1.96875 -2.148438 1.652344 -4.628906 C 1.652344 -5.921875 1.953125 -8.71875 3.667969 -9.242188 L 3.699219 -9.242188 C 3.710938 -9.257812 3.726562 -9.257812 3.742188 -9.257812 C 3.773438 -9.257812 3.800781 -9.214844 3.832031 -9.214844 C 3.878906 -9.257812 3.953125 -9.226562 3.953125 -9.273438 L 4.117188 -9.273438 C 4.359375 -9.347656 4.597656 -9.394531 4.882812 -9.421875 Z M 4.882812 -9.421875 "/></g></g></g><g fill="#000000" fill-opacity="1"><g transform="translate(294.82881, 283.479941)"><g><path d="M 7.5 -10.3125 C 7.53125 -10.265625 7.546875 -10.191406 7.558594 -10.160156 C 7.484375 -10.160156 7.441406 -10.25 7.425781 -10.25 L 7.394531 -10.597656 C 7.394531 -10.714844 7.167969 -10.296875 7.167969 -10.355469 L 7.140625 -10.386719 C 7.109375 -10.445312 7.0625 -10.507812 6.988281 -10.519531 C 6.75 -10.476562 6.855469 -10.101562 6.777344 -10.011719 C 6.761719 -9.980469 6.761719 -9.949219 6.761719 -9.949219 C 6.761719 -9.875 6.734375 -9.859375 6.734375 -9.816406 L 6.734375 -9.738281 C 6.644531 -9.0625 6.613281 -7.890625 6.613281 -6.882812 C 6.613281 -6.359375 6.628906 -5.875 6.628906 -5.5625 C 6.628906 -5.304688 6.644531 -4.988281 6.660156 -4.675781 L 6.660156 -4.6875 C 6.671875 -4.253906 6.671875 -3.832031 6.671875 -3.457031 C 6.660156 -3.304688 6.644531 -3.109375 6.644531 -2.929688 L 6.644531 -2.464844 L 6.164062 -2.824219 L 5.96875 -3.203125 L 5.96875 -3.214844 L 5.847656 -3.457031 C 5.726562 -3.636719 5.605469 -3.894531 5.472656 -4.179688 L 5.140625 -4.871094 C 5.003906 -5.09375 4.824219 -5.484375 4.660156 -5.832031 C 4.554688 -6.148438 4.402344 -6.507812 4.253906 -6.824219 L 4.011719 -7.351562 L 3.878906 -7.574219 L 3.816406 -7.679688 C 3.742188 -7.90625 3.605469 -8.191406 3.503906 -8.355469 C 3.441406 -8.476562 3.367188 -8.597656 3.320312 -8.734375 C 3.246094 -8.851562 3.140625 -9.078125 3.050781 -9.304688 C 2.960938 -9.527344 2.75 -9.933594 2.601562 -10.21875 C 2.480469 -10.265625 2.164062 -10.761719 2.015625 -10.761719 C 1.96875 -10.761719 1.910156 -10.746094 1.832031 -10.746094 L 1.683594 -10.746094 C 1.457031 -10.746094 1.261719 -10.671875 1.023438 -10.625 L 1.023438 -10.597656 C 1.082031 -10.550781 1.113281 -10.476562 1.113281 -10.402344 C 1.113281 -10.371094 1.097656 -10.339844 1.097656 -10.324219 C 1.113281 -10.296875 1.113281 -10.234375 1.128906 -10.175781 C 1.113281 -10.054688 1.066406 -10.085938 0.902344 -10.039062 C 1.023438 -9.90625 1.113281 -9.453125 1.113281 -9.257812 L 1.113281 -7.394531 C 1.113281 -6.839844 1.097656 -6.28125 1.066406 -5.726562 L 1.023438 -4.613281 L 1.023438 -2.585938 C 1.023438 -2.179688 1.007812 -1.726562 0.992188 -1.277344 C 1.007812 -0.839844 0.992188 0.796875 1.292969 0.796875 C 1.351562 0.796875 1.414062 0.75 1.414062 0.644531 C 1.414062 0.617188 1.414062 0.585938 1.398438 0.542969 L 1.429688 0.496094 C 1.441406 0.527344 1.472656 0.527344 1.503906 0.527344 C 1.53125 0.527344 1.5625 0.511719 1.59375 0.496094 C 1.609375 0.511719 1.683594 0.75 1.699219 0.75 C 1.699219 0.570312 1.984375 0.511719 2 0.300781 C 2 0.300781 1.984375 -0.226562 2 -0.210938 L 1.953125 -1.261719 C 1.953125 -1.292969 2 -1.308594 2 -1.351562 L 2 -1.429688 C 2 -1.441406 2 -1.441406 2.015625 -1.519531 L 2.042969 -1.96875 C 2.042969 -2.179688 2.027344 -2.433594 2.015625 -2.628906 C 2 -2.824219 2 -2.992188 2 -3.203125 C 2 -3.96875 2 -4.703125 2.042969 -5.457031 C 2.074219 -6.117188 2.089844 -6.792969 2.089844 -7.453125 L 2.195312 -7.257812 C 2.375 -6.929688 2.539062 -6.644531 2.707031 -6.3125 L 2.691406 -6.328125 C 2.871094 -5.890625 3.410156 -5.378906 3.605469 -4.976562 C 4.011719 -4.195312 4.507812 -3.15625 4.871094 -2.390625 C 5.125 -1.925781 5.378906 -1.457031 5.605469 -0.976562 C 5.679688 -0.828125 5.847656 -0.617188 5.96875 -0.464844 C 6.070312 -0.332031 6.148438 -0.210938 6.222656 -0.0585938 C 6.417969 0.4375 7.0625 0.464844 7.394531 0.148438 C 7.574219 -0.046875 7.648438 -0.332031 7.648438 -0.660156 C 7.648438 -0.796875 7.636719 -1.023438 7.621094 -1.1875 C 7.605469 -1.429688 7.574219 -1.699219 7.605469 -1.863281 C 7.648438 -2.164062 7.648438 -2.496094 7.648438 -2.839844 C 7.648438 -3.097656 7.648438 -3.304688 7.664062 -3.53125 L 7.664062 -3.515625 C 7.695312 -3.9375 7.695312 -4.417969 7.695312 -4.898438 C 7.695312 -5.441406 7.695312 -5.996094 7.679688 -6.554688 C 7.664062 -7.035156 7.648438 -7.53125 7.648438 -7.996094 C 7.648438 -8.613281 7.710938 -9.738281 7.742188 -10.296875 Z M 7.5 -10.3125 "/></g></g></g></svg>