<?xml version="1.0" encoding="UTF-8" standalone="no" ?>
<!DOCTYPE svg PUBLIC "-//W3C//DTD SVG 1.1//EN" "http://www.w3.org/Graphics/SVG/1.1/DTD/svg11.dtd">
<svg xmlns="http://www.w3.org/2000/svg" xmlns:xlink="http://www.w3.org/1999/xlink" version="1.1" width="200" height="200" viewBox="0 0 200 200" xml:space="preserve">
<desc>Created with Fabric.js 5.2.4</desc>
<defs>
</defs>
<rect x="0" y="0" width="100%" height="100%" fill="transparent"></rect>
<g transform="matrix(Infinity NaN NaN Infinity 0 0)" id="ca23aafe-6275-4c47-a980-23de4c659f4d"  >
</g>
<g transform="matrix(1 0 0 1 100 100)" id="b7f2c214-73f4-4e99-a404-101f9b65c0bc"  >
<rect style="stroke: none; stroke-width: 1; stroke-dasharray: none; stroke-linecap: butt; stroke-dashoffset: 0; stroke-linejoin: miter; stroke-miterlimit: 4; fill: rgb(255,255,255); fill-rule: nonzero; opacity: 1; visibility: hidden;" vector-effect="non-scaling-stroke"  x="-100" y="-100" rx="0" ry="0" width="200" height="200" />
</g>
<g transform="matrix(0.94 0 0 0.94 100 73)"  >
<g style="" vector-effect="non-scaling-stroke"   >
		<g transform="matrix(1.33 0 0 1.33 49.57 31.77)" clip-path="url(#CLIPPATH_34)"  >
<clipPath id="CLIPPATH_34" >
	<path transform="matrix(1 0 0 1 -43.35 -21.74) translate(-178.53, -187.51)" clip-path="url(#undefined)" d="M 228.53125 235.230469 L 109.84375 195.21875 L 128.53125 139.785156 L 247.21875 179.796875 Z M 228.53125 235.230469" stroke-linecap="round" />
</clipPath>
<path style="stroke: none; stroke-width: 1; stroke-dasharray: none; stroke-linecap: butt; stroke-dashoffset: 0; stroke-linejoin: miter; stroke-miterlimit: 4; fill: rgb(255,217,64); fill-rule: evenodd; opacity: 1;" vector-effect="non-scaling-stroke"  transform=" translate(-221.88, -209.25)" d="M 233.847656 203.648438 C 231.285156 204.984375 229.992188 205.429688 227.707031 206.460938 L 217.386719 210.945312 C 214.269531 212.09375 212.542969 212.390625 209.441406 212.84375 C 207.910156 213.074219 208.453125 212.378906 207.460938 213.097656 C 206.933594 213.492188 205.78125 214.425781 205.316406 214.882812 C 206.105469 215.808594 208.175781 216.464844 209.097656 216.597656 C 211.550781 217.03125 214.789062 215.394531 217.152344 214.121094 C 221.304688 211.871094 225.253906 209.550781 229.535156 208.351562 C 231.964844 207.675781 232.859375 207.628906 235.039062 207.4375 C 237.269531 207.222656 237.726562 207.949219 238.347656 204.417969 C 238.480469 203.625 238.574219 202.691406 238.035156 201.9375 C 237.617188 201.355469 234.65625 203.21875 233.847656 203.648438 Z M 233.847656 203.648438" stroke-linecap="round" />
</g>
		<g transform="matrix(1.33 0 0 1.33 51.69 38.25)" clip-path="url(#CLIPPATH_35)"  >
<clipPath id="CLIPPATH_35" >
	<path transform="matrix(1 0 0 1 -44.9 -26.59) translate(-178.53, -187.51)" clip-path="url(#undefined)" d="M 228.53125 235.230469 L 109.84375 195.21875 L 128.53125 139.785156 L 247.21875 179.796875 Z M 228.53125 235.230469" stroke-linecap="round" />
</clipPath>
<path style="stroke: none; stroke-width: 1; stroke-dasharray: none; stroke-linecap: butt; stroke-dashoffset: 0; stroke-linejoin: miter; stroke-miterlimit: 4; fill: rgb(255,217,64); fill-rule: evenodd; opacity: 1;" vector-effect="non-scaling-stroke"  transform=" translate(-223.43, -214.09)" d="M 222.898438 216.28125 C 224.695312 215.652344 225.59375 215.207031 224.285156 211.90625 C 223.914062 212.089844 222.328125 212.875 221.960938 213.191406 C 222.078125 213.625 222.3125 214.234375 222.457031 214.722656 C 222.546875 215.238281 222.625 215.789062 222.898438 216.28125 Z M 222.898438 216.28125" stroke-linecap="round" />
</g>
		<g transform="matrix(1.33 0 0 1.33 45.81 27.41)" clip-path="url(#CLIPPATH_36)"  >
<clipPath id="CLIPPATH_36" >
	<path transform="matrix(1 0 0 1 -40.5 -18.46) translate(-178.53, -187.51)" clip-path="url(#undefined)" d="M 228.53125 235.230469 L 109.84375 195.21875 L 128.53125 139.785156 L 247.21875 179.796875 Z M 228.53125 235.230469" stroke-linecap="round" />
</clipPath>
<path style="stroke: none; stroke-width: 1; stroke-dasharray: none; stroke-linecap: butt; stroke-dashoffset: 0; stroke-linejoin: miter; stroke-miterlimit: 4; fill: rgb(255,217,64); fill-rule: evenodd; opacity: 1;" vector-effect="non-scaling-stroke"  transform=" translate(-219.03, -205.96)" d="M 219.71875 207.816406 C 220.195312 208.242188 220.023438 208.226562 220.5625 208.058594 C 220.816406 207.964844 222.136719 207.3125 222.375 207.128906 C 221.441406 205.84375 220.324219 205.117188 219.230469 204.441406 C 217.820312 203.523438 217.925781 203.207031 215.691406 205.535156 C 216.46875 206.105469 217.179688 205.554688 219.71875 207.816406 Z M 219.71875 207.816406" stroke-linecap="round" />
</g>
		<g transform="matrix(1.33 0 0 1.33 34.26 27.38)" clip-path="url(#CLIPPATH_37)"  >
<clipPath id="CLIPPATH_37" >
	<path transform="matrix(1 0 0 1 -31.86 -18.47) translate(-178.53, -187.51)" clip-path="url(#undefined)" d="M 228.53125 235.230469 L 109.84375 195.21875 L 128.53125 139.785156 L 247.21875 179.796875 Z M 228.53125 235.230469" stroke-linecap="round" />
</clipPath>
<path style="stroke: none; stroke-width: 1; stroke-dasharray: none; stroke-linecap: butt; stroke-dashoffset: 0; stroke-linejoin: miter; stroke-miterlimit: 4; fill: rgb(255,217,64); fill-rule: evenodd; opacity: 1;" vector-effect="non-scaling-stroke"  transform=" translate(-210.39, -205.97)" d="M 217.257812 202.324219 C 219.375 200.617188 223.484375 198.085938 224.292969 197.257812 C 225.164062 196.367188 225.726562 193.914062 225.097656 193.042969 C 224.058594 191.550781 214.84375 201.773438 214.105469 202.535156 L 209.738281 206.738281 C 209.417969 207.027344 209.113281 207.410156 208.742188 207.722656 L 202.949219 212.371094 C 202.328125 212.777344 201.683594 213.261719 200.953125 213.722656 L 195.417969 217.089844 C 195.558594 217.445312 195.429688 220.570312 199.253906 218.117188 C 200.414062 217.410156 201.671875 216.292969 202.808594 215.269531 L 208.074219 210.753906 C 210.429688 208.863281 214.957031 204.1875 217.257812 202.324219 Z M 217.257812 202.324219" stroke-linecap="round" />
</g>
		<g transform="matrix(1.33 0 0 1.33 29.19 21.96)" clip-path="url(#CLIPPATH_38)"  >
<clipPath id="CLIPPATH_38" >
	<path transform="matrix(1 0 0 1 -28.07 -14.41) translate(-178.53, -187.51)" clip-path="url(#undefined)" d="M 228.53125 235.230469 L 109.84375 195.21875 L 128.53125 139.785156 L 247.21875 179.796875 Z M 228.53125 235.230469" stroke-linecap="round" />
</clipPath>
<path style="stroke: none; stroke-width: 1; stroke-dasharray: none; stroke-linecap: butt; stroke-dashoffset: 0; stroke-linejoin: miter; stroke-miterlimit: 4; fill: rgb(255,217,64); fill-rule: evenodd; opacity: 1;" vector-effect="non-scaling-stroke"  transform=" translate(-206.61, -201.91)" d="M 195.050781 215.558594 C 203.441406 211.171875 208.65625 206.285156 215.960938 198.71875 C 218.53125 196.066406 220.914062 193.304688 223.875 191.707031 C 224.628906 191.300781 226 191.015625 226.359375 190.609375 C 228.171875 188.757812 228.941406 182.679688 221.308594 188.863281 C 218.703125 190.976562 217.976562 191.832031 215.792969 193.867188 L 213.542969 196.230469 C 213.265625 196.535156 213 196.796875 212.707031 197.136719 L 204.832031 205.480469 C 199.351562 211.15625 194.210938 213.867188 188.046875 215.703125 C 183.6875 217.007812 186.335938 217.769531 187.695312 217.65625 L 188.910156 217.582031 C 191.191406 217.46875 192.910156 216.683594 195.050781 215.558594 Z M 195.050781 215.558594" stroke-linecap="round" />
</g>
		<g transform="matrix(1.33 0 0 1.33 25.7 15.29)" clip-path="url(#CLIPPATH_39)"  >
<clipPath id="CLIPPATH_39" >
	<path transform="matrix(1 0 0 1 -25.47 -9.41) translate(-178.53, -187.51)" clip-path="url(#undefined)" d="M 228.53125 235.230469 L 109.84375 195.21875 L 128.53125 139.785156 L 247.21875 179.796875 Z M 228.53125 235.230469" stroke-linecap="round" />
</clipPath>
<path style="stroke: none; stroke-width: 1; stroke-dasharray: none; stroke-linecap: butt; stroke-dashoffset: 0; stroke-linejoin: miter; stroke-miterlimit: 4; fill: rgb(255,217,64); fill-rule: evenodd; opacity: 1;" vector-effect="non-scaling-stroke"  transform=" translate(-204, -196.92)" d="M 204.734375 203.820312 L 210.042969 197.867188 C 214.25 193.480469 219.890625 187.195312 224.910156 184.972656 C 225.332031 184.765625 225.914062 184.609375 226.457031 184.570312 C 227.011719 184.492188 227.351562 184.652344 227.894531 184.089844 C 229.523438 182.394531 228.925781 179.199219 228.113281 178.222656 C 227.480469 177.480469 224.441406 178.921875 223.398438 179.535156 C 218.574219 182.355469 217.222656 184.539062 214.058594 187.253906 C 213.808594 187.476562 213.847656 187.359375 213.621094 187.636719 C 213.503906 187.726562 213.398438 187.910156 213.382812 187.953125 L 213.316406 188.015625 L 205.386719 196.648438 C 203.308594 199.425781 200.609375 201.550781 198.597656 203.601562 C 197.660156 204.558594 197.128906 204.953125 196.351562 205.570312 C 192.488281 208.800781 191.496094 209.390625 187.164062 211.402344 C 185.710938 212.058594 184.203125 212.605469 182.777344 213.046875 C 180.585938 213.671875 178.460938 213.574219 179.238281 214.671875 C 179.90625 215.554688 180.183594 215.648438 181.371094 215.785156 C 183.019531 215.988281 185.34375 215.234375 186.996094 214.515625 C 187.667969 214.214844 188.261719 214.148438 188.921875 213.886719 C 189.53125 213.652344 190.125 213.457031 190.824219 213.210938 C 192.09375 212.714844 193.414062 212.191406 194.640625 211.550781 C 196.714844 210.488281 200.445312 208.050781 202.640625 205.710938 C 203.503906 204.855469 203.871094 204.675781 204.734375 203.820312 Z M 204.734375 203.820312" stroke-linecap="round" />
</g>
		<g transform="matrix(1.33 0 0 1.33 20.53 9.28)" clip-path="url(#CLIPPATH_40)"  >
<clipPath id="CLIPPATH_40" >
	<path transform="matrix(1 0 0 1 -21.59 -4.91) translate(-178.53, -187.51)" clip-path="url(#undefined)" d="M 228.53125 235.230469 L 109.84375 195.21875 L 128.53125 139.785156 L 247.21875 179.796875 Z M 228.53125 235.230469" stroke-linecap="round" />
</clipPath>
<path style="stroke: none; stroke-width: 1; stroke-dasharray: none; stroke-linecap: butt; stroke-dashoffset: 0; stroke-linejoin: miter; stroke-miterlimit: 4; fill: rgb(255,217,64); fill-rule: evenodd; opacity: 1;" vector-effect="non-scaling-stroke"  transform=" translate(-200.13, -192.41)" d="M 187.339844 209.703125 C 201.605469 203.691406 213.761719 180.820312 225.859375 176.804688 C 226.453125 176.605469 226.902344 176.714844 227.417969 176.226562 C 226.078125 174.324219 226.671875 174.523438 224.132812 172.394531 C 223.371094 171.785156 222.828125 172.085938 221.957031 172.582031 C 220.050781 173.65625 216.34375 177.730469 215.113281 179.425781 C 212.96875 182.265625 208.214844 187.484375 205.644531 190.535156 L 202.058594 194.382812 C 195.003906 201.726562 185.097656 209.035156 176.304688 211.484375 C 175.683594 211.625 175.183594 211.808594 174.507812 211.976562 C 173.875 212.160156 173.398438 212.132812 172.832031 212.511719 C 174.109375 213.03125 176.273438 212.617188 177.539062 212.648438 C 178.238281 212.664062 178.09375 212.703125 178.753906 212.441406 C 179.679688 212.046875 180.21875 212.144531 181.171875 211.933594 C 182.835938 211.574219 185.6875 210.421875 187.339844 209.703125 Z M 187.339844 209.703125" stroke-linecap="round" />
</g>
		<g transform="matrix(1.33 0 0 1.33 -26.78 29.02)" clip-path="url(#CLIPPATH_41)"  >
<clipPath id="CLIPPATH_41" >
	<path transform="matrix(1 0 0 1 13.92 -19.68) translate(-178.53, -187.51)" clip-path="url(#undefined)" d="M 228.53125 235.230469 L 109.84375 195.21875 L 128.53125 139.785156 L 247.21875 179.796875 Z M 228.53125 235.230469" stroke-linecap="round" />
</clipPath>
<path style="stroke: none; stroke-width: 1; stroke-dasharray: none; stroke-linecap: butt; stroke-dashoffset: 0; stroke-linejoin: miter; stroke-miterlimit: 4; fill: rgb(255,217,64); fill-rule: evenodd; opacity: 1;" vector-effect="non-scaling-stroke"  transform=" translate(-164.62, -207.18)" d="M 177.933594 209.261719 C 176.304688 206.90625 172.472656 205.484375 170.097656 204.683594 C 167.886719 203.9375 164.296875 203.34375 162.015625 203.324219 C 160.300781 203.316406 158.613281 203.363281 156.894531 203.621094 C 155.601562 203.800781 152.484375 204.816406 151.878906 205.449219 C 151.296875 206 151.09375 207.648438 151.539062 208.28125 C 152.472656 209.5625 157.582031 208.25 159.902344 208.285156 C 163.042969 208.375 163.359375 208.21875 166.484375 208.875 C 168.738281 209.371094 170.921875 211.253906 172.058594 211.019531 C 172.386719 210.953125 172.585938 210.890625 172.929688 210.785156 C 173.917969 210.589844 177.179688 209.929688 177.933594 209.261719 Z M 177.933594 209.261719" stroke-linecap="round" />
</g>
		<g transform="matrix(1.33 0 0 1.33 -27.81 23.25)" clip-path="url(#CLIPPATH_42)"  >
<clipPath id="CLIPPATH_42" >
	<path transform="matrix(1 0 0 1 14.68 -15.35) translate(-178.53, -187.51)" clip-path="url(#undefined)" d="M 228.53125 235.230469 L 109.84375 195.21875 L 128.53125 139.785156 L 247.21875 179.796875 Z M 228.53125 235.230469" stroke-linecap="round" />
</clipPath>
<path style="stroke: none; stroke-width: 1; stroke-dasharray: none; stroke-linecap: butt; stroke-dashoffset: 0; stroke-linejoin: miter; stroke-miterlimit: 4; fill: rgb(255,217,64); fill-rule: evenodd; opacity: 1;" vector-effect="non-scaling-stroke"  transform=" translate(-163.86, -202.86)" d="M 165.488281 202.03125 C 170.078125 202.785156 176.496094 204.507812 179.519531 208.738281 C 181.050781 208.242188 181.433594 207.890625 182.4375 207.523438 C 182.03125 206.902344 182.058594 206.558594 181.574219 206.042969 C 179.691406 204.046875 178.613281 202.539062 175.914062 201.011719 C 175.507812 200.789062 175.152344 200.535156 174.703125 200.296875 L 172.386719 199.207031 C 170.726562 198.515625 168.15625 197.78125 166.453125 197.472656 C 164.304688 197.054688 162.511719 196.890625 160.269531 197.015625 L 159.09375 197.101562 C 155.875 197.378906 151.9375 198.738281 148.808594 200.1875 C 146.402344 201.3125 144.261719 201.914062 145.785156 204.054688 C 147.953125 207.160156 150.179688 204.214844 154.789062 202.558594 C 157.296875 201.644531 162.867188 201.585938 165.488281 202.03125 Z M 165.488281 202.03125" stroke-linecap="round" />
</g>
		<g transform="matrix(1.33 0 0 1.33 -25.98 18.77)" clip-path="url(#CLIPPATH_43)"  >
<clipPath id="CLIPPATH_43" >
	<path transform="matrix(1 0 0 1 13.3 -11.99) translate(-178.53, -187.51)" clip-path="url(#undefined)" d="M 228.53125 235.230469 L 109.84375 195.21875 L 128.53125 139.785156 L 247.21875 179.796875 Z M 228.53125 235.230469" stroke-linecap="round" />
</clipPath>
<path style="stroke: none; stroke-width: 1; stroke-dasharray: none; stroke-linecap: butt; stroke-dashoffset: 0; stroke-linejoin: miter; stroke-miterlimit: 4; fill: rgb(255,217,64); fill-rule: evenodd; opacity: 1;" vector-effect="non-scaling-stroke"  transform=" translate(-165.23, -199.5)" d="M 164.125 195.5 C 168.109375 195.566406 175.183594 198.214844 178.410156 200.796875 C 180.277344 202.308594 182.738281 204.414062 183.707031 206.894531 L 187.289062 204.757812 C 186.789062 204.019531 186.882812 203.875 186.410156 203.1875 L 185.632812 202.351562 L 185.398438 202.007812 C 184.871094 201.347656 184.6875 201.242188 184.242188 200.738281 C 182.320312 198.597656 178.175781 195.878906 175.433594 195 C 173.167969 194.277344 172.929688 194.066406 170.265625 193.34375 C 169.820312 193.238281 169.449219 193.15625 169 193.050781 C 168.132812 192.890625 167.351562 192.714844 166.390625 192.566406 C 162.433594 192.023438 158.34375 191.878906 154.238281 192.5625 C 153.765625 192.664062 153.382812 192.757812 152.90625 192.859375 C 152.390625 192.949219 152.0625 193.015625 151.480469 193.171875 C 150.992188 193.316406 150.664062 193.378906 150.132812 193.507812 L 146.027344 194.722656 C 142.355469 195.683594 142.539062 200.363281 144.835938 200.476562 L 147.542969 199.234375 C 149.777344 198.097656 151.691406 197.246094 153.976562 196.609375 L 156.617188 195.960938 C 160.855469 195.277344 160.273438 195.433594 164.125 195.5 Z M 164.125 195.5" stroke-linecap="round" />
</g>
		<g transform="matrix(1.33 0 0 1.33 -24.08 13.41)" clip-path="url(#CLIPPATH_44)"  >
<clipPath id="CLIPPATH_44" >
	<path transform="matrix(1 0 0 1 11.87 -7.98) translate(-178.53, -187.51)" clip-path="url(#undefined)" d="M 228.53125 235.230469 L 109.84375 195.21875 L 128.53125 139.785156 L 247.21875 179.796875 Z M 228.53125 235.230469" stroke-linecap="round" />
</clipPath>
<path style="stroke: none; stroke-width: 1; stroke-dasharray: none; stroke-linecap: butt; stroke-dashoffset: 0; stroke-linejoin: miter; stroke-miterlimit: 4; fill: rgb(255,217,64); fill-rule: evenodd; opacity: 1;" vector-effect="non-scaling-stroke"  transform=" translate(-166.67, -195.48)" d="M 153.664062 191.136719 C 159.988281 190.144531 165.183594 190.398438 171.179688 191.9375 L 176.757812 193.816406 C 181.050781 195.703125 184.382812 197.972656 187.496094 202.320312 C 188.320312 203.523438 188.019531 203.246094 188.464844 204.011719 C 189.5625 203.238281 191.414062 202.058594 192.484375 200.96875 L 191.644531 199.804688 C 188.964844 195.996094 185.121094 193.292969 181.355469 191.40625 L 172.078125 188.105469 C 168.78125 187.167969 161.792969 186.75 157.992188 187.050781 C 154.152344 187.339844 151.800781 187.386719 147.867188 188.214844 C 145.453125 188.71875 138.945312 189.605469 141.390625 193.070312 C 142.558594 194.695312 143.402344 194.011719 144.671875 193.515625 Z M 153.664062 191.136719" stroke-linecap="round" />
</g>
		<g transform="matrix(1.33 0 0 1.33 12.44 18.77)" clip-path="url(#CLIPPATH_45)"  >
<clipPath id="CLIPPATH_45" >
	<path transform="matrix(1 0 0 1 -15.46 -11.98) translate(-178.53, -187.51)" clip-path="url(#undefined)" d="M 228.53125 235.230469 L 109.84375 195.21875 L 128.53125 139.785156 L 247.21875 179.796875 Z M 228.53125 235.230469" stroke-linecap="round" />
</clipPath>
<path style="stroke: none; stroke-width: 1; stroke-dasharray: none; stroke-linecap: butt; stroke-dashoffset: 0; stroke-linejoin: miter; stroke-miterlimit: 4; fill: rgb(255,217,64); fill-rule: evenodd; opacity: 1;" vector-effect="non-scaling-stroke"  transform=" translate(-194, -199.48)" d="M 192.914062 198.914062 L 193.753906 200.074219 C 194.257812 199.628906 194.441406 199.601562 195.078125 198.894531 Z M 192.914062 198.914062" stroke-linecap="round" />
</g>
		<g transform="matrix(1.33 0 0 1.33 12.74 14.44)" clip-path="url(#CLIPPATH_46)"  >
<clipPath id="CLIPPATH_46" >
	<path transform="matrix(1 0 0 1 -15.7 -8.73) translate(-178.53, -187.51)" clip-path="url(#undefined)" d="M 228.53125 235.230469 L 109.84375 195.21875 L 128.53125 139.785156 L 247.21875 179.796875 Z M 228.53125 235.230469" stroke-linecap="round" />
</clipPath>
<path style="stroke: none; stroke-width: 1; stroke-dasharray: none; stroke-linecap: butt; stroke-dashoffset: 0; stroke-linejoin: miter; stroke-miterlimit: 4; fill: rgb(255,217,64); fill-rule: evenodd; opacity: 1;" vector-effect="non-scaling-stroke"  transform=" translate(-194.23, -196.24)" d="M 191.71875 197.496094 C 192.523438 197.195312 194.675781 197.21875 195.597656 197.351562 C 196.019531 197.40625 196.363281 197.566406 196.71875 197.6875 C 197.589844 196.792969 198.082031 196.519531 198.769531 195.78125 C 198.046875 194.921875 193.585938 194.695312 192.003906 194.820312 C 191.144531 194.882812 190.328125 194.695312 189.695312 195.273438 C 190.296875 196.09375 190.96875 196.453125 191.71875 197.496094 Z M 191.71875 197.496094" stroke-linecap="round" />
</g>
		<g transform="matrix(1.33 0 0 1.33 12.88 9.18)" clip-path="url(#CLIPPATH_47)"  >
<clipPath id="CLIPPATH_47" >
	<path transform="matrix(1 0 0 1 -15.81 -4.79) translate(-178.53, -187.51)" clip-path="url(#undefined)" d="M 228.53125 235.230469 L 109.84375 195.21875 L 128.53125 139.785156 L 247.21875 179.796875 Z M 228.53125 235.230469" stroke-linecap="round" />
</clipPath>
<path style="stroke: none; stroke-width: 1; stroke-dasharray: none; stroke-linecap: butt; stroke-dashoffset: 0; stroke-linejoin: miter; stroke-miterlimit: 4; fill: rgb(255,217,64); fill-rule: evenodd; opacity: 1;" vector-effect="non-scaling-stroke"  transform=" translate(-194.34, -192.3)" d="M 188.917969 193.78125 L 192.734375 193.175781 C 194.632812 193.15625 194.859375 193.277344 196.46875 193.46875 C 197.273438 193.5625 199.339844 193.953125 199.984375 194.519531 L 203.308594 191.066406 C 199.882812 189.734375 188.90625 189.511719 185.378906 191.882812 C 185.929688 192.335938 186.546875 192.71875 187.152344 193.144531 C 187.863281 193.648438 188.023438 194.09375 188.917969 193.78125 Z M 188.917969 193.78125" stroke-linecap="round" />
</g>
		<g transform="matrix(1.33 0 0 1.33 10.11 3.66)" clip-path="url(#CLIPPATH_48)"  >
<clipPath id="CLIPPATH_48" >
	<path transform="matrix(1 0 0 1 -13.74 -0.65) translate(-178.53, -187.51)" clip-path="url(#undefined)" d="M 228.53125 235.230469 L 109.84375 195.21875 L 128.53125 139.785156 L 247.21875 179.796875 Z M 228.53125 235.230469" stroke-linecap="round" />
</clipPath>
<path style="stroke: none; stroke-width: 1; stroke-dasharray: none; stroke-linecap: butt; stroke-dashoffset: 0; stroke-linejoin: miter; stroke-miterlimit: 4; fill: rgb(255,217,64); fill-rule: evenodd; opacity: 1;" vector-effect="non-scaling-stroke"  transform=" translate(-192.28, -188.16)" d="M 185.832031 190.011719 C 189.453125 188.417969 192.945312 188.761719 196.179688 188.574219 L 196.3125 188.574219 L 197.0625 188.5625 C 200.585938 188.695312 201.496094 188.605469 204.433594 189.949219 C 205.398438 188.910156 205.929688 188.121094 207.003906 187.03125 C 206.59375 186.542969 205.355469 186.433594 204.644531 186.324219 L 197.941406 185.5625 C 197.296875 185.519531 196.808594 185.53125 196.148438 185.527344 C 195.488281 185.527344 194.976562 185.484375 194.316406 185.484375 L 193.550781 185.53125 L 193.324219 185.542969 C 192.929688 185.542969 192.863281 185.609375 192.46875 185.609375 C 192.113281 185.621094 191.863281 185.578125 191.503906 185.589844 L 188.785156 185.816406 C 186.664062 185.851562 178.863281 187.179688 177.550781 188.058594 C 177.90625 188.308594 178.710938 188.539062 179.210938 188.75 C 184.785156 191.15625 182.792969 191.320312 185.832031 190.011719 Z M 185.832031 190.011719" stroke-linecap="round" />
</g>
		<g transform="matrix(1.33 0 0 1.33 7.2 -2.96)" clip-path="url(#CLIPPATH_49)"  >
<clipPath id="CLIPPATH_49" >
	<path transform="matrix(1 0 0 1 -11.58 4.31) translate(-178.53, -187.51)" clip-path="url(#undefined)" d="M 228.53125 235.230469 L 109.84375 195.21875 L 128.53125 139.785156 L 247.21875 179.796875 Z M 228.53125 235.230469" stroke-linecap="round" />
</clipPath>
<path style="stroke: none; stroke-width: 1; stroke-dasharray: none; stroke-linecap: butt; stroke-dashoffset: 0; stroke-linejoin: miter; stroke-miterlimit: 4; fill: rgb(255,217,64); fill-rule: evenodd; opacity: 1;" vector-effect="non-scaling-stroke"  transform=" translate(-190.11, -183.2)" d="M 187.777344 184.378906 C 190.429688 184.082031 197.011719 183.75 199.398438 184.117188 L 208.300781 185.269531 C 208.695312 185.140625 210.445312 182.957031 210.789062 182.457031 C 210.382812 182.101562 210.050781 182.03125 209.550781 181.820312 C 205.746094 179.921875 202.605469 179.171875 198.265625 179.117188 C 194.851562 179.0625 194.097656 179.207031 190.640625 179.402344 L 185.359375 180.175781 C 182.640625 180.667969 180.171875 181.460938 177.503906 182.324219 L 174.785156 183.339844 C 173.820312 183.71875 172.988281 184.101562 172.050781 184.53125 L 169.433594 185.894531 L 174.5625 187.136719 C 175.285156 187.339844 175.007812 187.375 175.878906 187.011719 C 176.394531 186.789062 176.699219 186.671875 177.1875 186.527344 C 180.542969 185.457031 181.597656 185.199219 185.164062 184.683594 C 186.046875 184.542969 186.863281 184.464844 187.777344 184.378906 Z M 187.777344 184.378906" stroke-linecap="round" />
</g>
		<g transform="matrix(1.33 0 0 1.33 4.78 -7.26)" clip-path="url(#CLIPPATH_50)"  >
<clipPath id="CLIPPATH_50" >
	<path transform="matrix(1 0 0 1 -9.77 7.53) translate(-178.53, -187.51)" clip-path="url(#undefined)" d="M 228.53125 235.230469 L 109.84375 195.21875 L 128.53125 139.785156 L 247.21875 179.796875 Z M 228.53125 235.230469" stroke-linecap="round" />
</clipPath>
<path style="stroke: none; stroke-width: 1; stroke-dasharray: none; stroke-linecap: butt; stroke-dashoffset: 0; stroke-linejoin: miter; stroke-miterlimit: 4; fill: rgb(255,217,64); fill-rule: evenodd; opacity: 1;" vector-effect="non-scaling-stroke"  transform=" translate(-188.31, -179.97)" d="M 181.140625 179.632812 C 187.015625 178.007812 194.355469 177.269531 199.882812 177.59375 C 200.265625 177.632812 200.328125 177.699219 200.710938 177.738281 C 202.914062 178 203.257812 177.761719 205.960938 178.628906 L 211.796875 181.167969 C 212.617188 180.300781 213.082031 179.710938 213.664062 179.027344 C 214.40625 178.132812 215.328125 177.742188 214.554688 177.171875 C 213.921875 176.695312 212.050781 176.105469 211.273438 175.800781 C 210.179688 175.386719 207.292969 174.8125 206.210938 174.753906 C 205.867188 174.726562 205.773438 174.738281 205.351562 174.683594 C 204.945312 174.589844 204.945312 174.589844 204.507812 174.578125 L 200.050781 174.347656 L 199.917969 174.347656 L 194.125 174.421875 C 193.492188 174.46875 193.003906 174.480469 192.371094 174.53125 L 188.78125 174.863281 C 185.628906 175.207031 183.144531 175.644531 180.003906 176.347656 C 179.382812 176.488281 178.828125 176.566406 178.234375 176.761719 C 174.707031 177.816406 173.019531 178.257812 169.238281 180.328125 C 167.945312 181.035156 166.832031 181.71875 165.523438 182.597656 C 164.453125 183.289062 162.75 184.300781 161.769531 185.246094 C 162.46875 185.523438 162.707031 185.339844 163.484375 185.382812 L 163.695312 185.410156 L 163.773438 185.4375 C 163.90625 185.4375 163.945312 185.453125 164.117188 185.464844 C 168.101562 185.796875 166.675781 185.578125 169.769531 184.113281 C 174.40625 181.851562 176.148438 180.988281 181.140625 179.632812 Z M 181.140625 179.632812" stroke-linecap="round" />
</g>
		<g transform="matrix(1.33 0 0 1.33 3.3 -10.16)" clip-path="url(#CLIPPATH_51)"  >
<clipPath id="CLIPPATH_51" >
	<path transform="matrix(1 0 0 1 -8.68 9.7) translate(-178.53, -187.51)" clip-path="url(#undefined)" d="M 228.53125 235.230469 L 109.84375 195.21875 L 128.53125 139.785156 L 247.21875 179.796875 Z M 228.53125 235.230469" stroke-linecap="round" />
</clipPath>
<path style="stroke: none; stroke-width: 1; stroke-dasharray: none; stroke-linecap: butt; stroke-dashoffset: 0; stroke-linejoin: miter; stroke-miterlimit: 4; fill: rgb(255,217,64); fill-rule: evenodd; opacity: 1;" vector-effect="non-scaling-stroke"  transform=" translate(-187.22, -177.8)" d="M 171.277344 177.671875 C 178.824219 174.101562 187.085938 173.496094 194.84375 172.8125 L 205.464844 173.050781 C 206.109375 173.09375 206.664062 173.277344 207.347656 173.335938 C 207.996094 173.375 208.484375 173.496094 209.140625 173.628906 C 210.261719 173.832031 211.671875 174.21875 212.792969 174.6875 C 213.714844 175.085938 214.625 175.390625 215.402344 175.960938 C 216.296875 176.570312 216.21875 176.148438 217.914062 174.257812 C 218.058594 174.085938 218.296875 173.902344 218.496094 173.703125 C 218.957031 173.246094 219.25 172.507812 218.804688 171.871094 C 218.199219 171.054688 215.617188 170.753906 214.640625 170.644531 L 214.546875 170.65625 L 194.734375 170.003906 L 194.640625 170.019531 L 191.949219 170.167969 C 185.457031 170.75 185.816406 170.210938 178.144531 172.332031 C 170.195312 174.492188 161.855469 178.851562 155.410156 185.566406 C 155.648438 185.644531 158.617188 185.589844 159.183594 185.339844 C 159.539062 185.199219 160.851562 184.1875 161.3125 183.859375 C 164.511719 181.417969 167.9375 179.230469 171.277344 177.671875 Z M 171.277344 177.671875" stroke-linecap="round" />
</g>
		<g transform="matrix(1.33 0 0 1.33 -37.95 -5.41)" clip-path="url(#CLIPPATH_52)"  >
<clipPath id="CLIPPATH_52" >
	<path transform="matrix(1 0 0 1 22.31 6.15) translate(-178.53, -187.51)" clip-path="url(#undefined)" d="M 228.53125 235.230469 L 109.84375 195.21875 L 128.53125 139.785156 L 247.21875 179.796875 Z M 228.53125 235.230469" stroke-linecap="round" />
</clipPath>
<path style="stroke: none; stroke-width: 1; stroke-dasharray: none; stroke-linecap: butt; stroke-dashoffset: 0; stroke-linejoin: miter; stroke-miterlimit: 4; fill: rgb(255,217,64); fill-rule: evenodd; opacity: 1;" vector-effect="non-scaling-stroke"  transform=" translate(-156.22, -181.36)" d="M 153.828125 185.164062 C 155.695312 183.285156 158.589844 180.832031 160.441406 179.386719 L 164.78125 176.316406 C 159.875 175.058594 150.441406 179.800781 147.664062 186.605469 L 151.675781 186.066406 C 152.96875 185.886719 152.941406 186.097656 153.828125 185.164062 Z M 153.828125 185.164062" stroke-linecap="round" />
</g>
		<g transform="matrix(1.33 0 0 1.33 -36.73 -8.03)" clip-path="url(#CLIPPATH_53)"  >
<clipPath id="CLIPPATH_53" >
	<path transform="matrix(1 0 0 1 21.39 8.1) translate(-178.53, -187.51)" clip-path="url(#undefined)" d="M 228.53125 235.230469 L 109.84375 195.21875 L 128.53125 139.785156 L 247.21875 179.796875 Z M 228.53125 235.230469" stroke-linecap="round" />
</clipPath>
<path style="stroke: none; stroke-width: 1; stroke-dasharray: none; stroke-linecap: butt; stroke-dashoffset: 0; stroke-linejoin: miter; stroke-miterlimit: 4; fill: rgb(255,217,64); fill-rule: evenodd; opacity: 1;" vector-effect="non-scaling-stroke"  transform=" translate(-157.15, -179.4)" d="M 146.863281 185.191406 C 148.746094 181.425781 152.304688 178.316406 155.570312 176.730469 C 156.5625 176.273438 157.246094 175.933594 158.210938 175.554688 C 159.164062 175.214844 159.875 175.058594 160.746094 174.828125 C 161.632812 174.550781 162.382812 174.542969 163.269531 174.53125 C 165.90625 174.410156 165.902344 175.597656 166.945312 175.246094 C 167.554688 175.007812 170.421875 173.554688 170.820312 173.160156 C 168.171875 170.949219 163.847656 170.722656 160.507812 171.488281 C 153.839844 172.980469 149.898438 176.050781 145.445312 182.734375 C 144.515625 184.179688 144.304688 184.550781 143.839844 185.933594 C 143.53125 186.839844 143.230469 186.957031 143.765625 187.710938 C 144.441406 187.277344 145.035156 187.480469 145.761719 187.152344 C 146.472656 186.863281 146.183594 186.546875 146.863281 185.191406 Z M 146.863281 185.191406" stroke-linecap="round" />
</g>
		<g transform="matrix(1.33 0 0 1.33 -35.89 -12.19)" clip-path="url(#CLIPPATH_54)"  >
<clipPath id="CLIPPATH_54" >
	<path transform="matrix(1 0 0 1 20.74 11.22) translate(-178.53, -187.51)" clip-path="url(#undefined)" d="M 228.53125 235.230469 L 109.84375 195.21875 L 128.53125 139.785156 L 247.21875 179.796875 Z M 228.53125 235.230469" stroke-linecap="round" />
</clipPath>
<path style="stroke: none; stroke-width: 1; stroke-dasharray: none; stroke-linecap: butt; stroke-dashoffset: 0; stroke-linejoin: miter; stroke-miterlimit: 4; fill: rgb(255,217,64); fill-rule: evenodd; opacity: 1;" vector-effect="non-scaling-stroke"  transform=" translate(-157.8, -176.29)" d="M 142.390625 185.53125 C 142.867188 185.03125 145.859375 177.460938 153.023438 172.925781 C 154.476562 172.007812 157.382812 170.699219 158.914062 170.335938 C 159.957031 170.117188 160.65625 169.867188 161.671875 169.726562 C 165.238281 169.210938 169.972656 169.53125 172.257812 172.8125 L 177.304688 171.035156 C 177.753906 170.878906 178.53125 170.660156 178.902344 170.476562 C 177.863281 169.246094 173.066406 167.539062 171.207031 167.175781 C 170.835938 167.097656 170.5625 167.003906 170.191406 166.921875 C 167.304688 166.214844 163.464844 165.976562 160.46875 166.375 L 158.6875 166.695312 C 152.984375 167.941406 146.738281 170.675781 141.8125 175.746094 C 140.382812 177.242188 138.226562 179.464844 137.242188 181.203125 C 137.058594 181.492188 136.925781 181.753906 136.804688 182.109375 C 136.738281 182.308594 136.738281 182.4375 136.726562 182.609375 C 136.402344 184.746094 138.308594 186.136719 139.601562 186.351562 C 140.355469 186.472656 141.59375 186.320312 142.390625 185.53125 Z M 142.390625 185.53125" stroke-linecap="round" />
</g>
		<g transform="matrix(1.33 0 0 1.33 -34.47 -19.42)" clip-path="url(#CLIPPATH_55)"  >
<clipPath id="CLIPPATH_55" >
	<path transform="matrix(1 0 0 1 19.66 16.64) translate(-178.53, -187.51)" clip-path="url(#undefined)" d="M 228.53125 235.230469 L 109.84375 195.21875 L 128.53125 139.785156 L 247.21875 179.796875 Z M 228.53125 235.230469" stroke-linecap="round" />
</clipPath>
<path style="stroke: none; stroke-width: 1; stroke-dasharray: none; stroke-linecap: butt; stroke-dashoffset: 0; stroke-linejoin: miter; stroke-miterlimit: 4; fill: rgb(255,217,64); fill-rule: evenodd; opacity: 1;" vector-effect="non-scaling-stroke"  transform=" translate(-158.88, -170.86)" d="M 140.628906 174.949219 C 142.929688 172.558594 146.910156 169.632812 149.582031 168.378906 C 150.519531 167.945312 151.484375 167.4375 152.433594 167.097656 C 157.847656 165.136719 160.792969 164.371094 166.242188 164.667969 L 168.257812 164.953125 C 168.5625 164.964844 168.640625 164.992188 168.890625 165.035156 C 169.378906 165.152344 169.695312 165.128906 170.25 165.316406 L 172.238281 165.808594 C 174.980469 166.425781 176.761719 167.289062 179.195312 168.683594 C 180.605469 169.464844 180.738281 169.996094 181.765625 169.8125 C 182.332031 169.695312 182.652344 169.539062 183.203125 169.460938 C 183.71875 169.371094 184.050781 169.4375 184.511719 169.109375 C 183.082031 167.089844 180.671875 165.617188 179.039062 164.714844 C 175.523438 162.738281 170.84375 160.941406 166.742188 160.570312 C 166.347656 160.566406 166.375 160.488281 165.992188 160.449219 L 163.761719 160.398438 L 163.644531 160.359375 L 163.324219 160.386719 C 163.140625 160.410156 163.195312 160.386719 163.007812 160.410156 C 158.191406 160.589844 156.792969 161.085938 152.199219 162.574219 L 149.039062 163.839844 C 145.710938 165.359375 142.421875 167.285156 139.324219 169.804688 L 136.863281 172.011719 C 136.492188 172.324219 136.929688 171.945312 136.613281 172.234375 L 136.082031 172.757812 L 136.003906 172.863281 C 135.367188 173.574219 133.683594 175.953125 133.445312 176.535156 C 133.035156 177.757812 133.238281 179.5 134.132812 180.769531 C 135.417969 182.566406 136.429688 179.828125 137.144531 179.011719 C 138.335938 177.699219 139.277344 176.34375 140.628906 174.949219 Z M 140.628906 174.949219" stroke-linecap="round" />
</g>
		<g transform="matrix(1.33 0 0 1.33 -72.4 -27.15)" clip-path="url(#CLIPPATH_56)"  >
<clipPath id="CLIPPATH_56" >
	<path transform="matrix(1 0 0 1 48.15 22.46) translate(-178.53, -187.51)" clip-path="url(#undefined)" d="M 228.53125 235.230469 L 109.84375 195.21875 L 128.53125 139.785156 L 247.21875 179.796875 Z M 228.53125 235.230469" stroke-linecap="round" />
</clipPath>
<path style="stroke: none; stroke-width: 1; stroke-dasharray: none; stroke-linecap: butt; stroke-dashoffset: 0; stroke-linejoin: miter; stroke-miterlimit: 4; fill: rgb(255,217,64); fill-rule: evenodd; opacity: 1;" vector-effect="non-scaling-stroke"  transform=" translate(-130.38, -165.05)" d="M 137.230469 169.230469 C 138.140625 168.746094 138.855469 168.457031 139.792969 167.5 C 138.949219 167.257812 138.316406 167.046875 137.503906 166.199219 C 134.859375 163.589844 134.550781 160.980469 130.9375 160.597656 C 128.683594 160.363281 127.992188 160.96875 125.910156 161.277344 C 122.648438 161.808594 124.144531 159.714844 122.28125 161.199219 C 121.804688 161.566406 121.367188 161.816406 120.972656 162.210938 C 121.679688 167.417969 124.164062 162.140625 129.136719 162.410156 C 131.089844 162.496094 131.796875 163.660156 132.769531 165.085938 C 134.359375 167.292969 134.480469 170.589844 137.230469 169.230469 Z M 137.230469 169.230469" stroke-linecap="round" />
</g>
		<g transform="matrix(1.33 0 0 1.33 -51.84 -41.08)" clip-path="url(#CLIPPATH_57)"  >
<clipPath id="CLIPPATH_57" >
	<path transform="matrix(1 0 0 1 32.73 32.9) translate(-178.53, -187.51)" clip-path="url(#undefined)" d="M 228.53125 235.230469 L 109.84375 195.21875 L 128.53125 139.785156 L 247.21875 179.796875 Z M 228.53125 235.230469" stroke-linecap="round" />
</clipPath>
<path style="stroke: none; stroke-width: 1; stroke-dasharray: none; stroke-linecap: butt; stroke-dashoffset: 0; stroke-linejoin: miter; stroke-miterlimit: 4; fill: rgb(255,217,64); fill-rule: evenodd; opacity: 1;" vector-effect="non-scaling-stroke"  transform=" translate(-145.8, -154.61)" d="M 138.082031 149.191406 C 138.953125 149.882812 140.578125 148.84375 141.8125 150.539062 C 144.113281 153.777344 140.210938 156.992188 142.035156 159.542969 C 143.046875 160.984375 144.800781 161.53125 146.316406 161.601562 C 147.226562 161.644531 147.476562 161.816406 148.441406 161.703125 C 149.652344 161.628906 152.492188 161.175781 153.523438 160.46875 C 153.0625 160.136719 152.824219 160.320312 152.285156 160.226562 L 148.523438 159.882812 C 147.234375 159.667969 144.738281 159.488281 143.820312 158.164062 C 142.179688 155.851562 146.152344 146.808594 140.542969 147.515625 C 139.394531 147.65625 139.273438 148.011719 138.082031 149.191406 Z M 138.082031 149.191406" stroke-linecap="round" />
</g>
		<g transform="matrix(1.33 0 0 1.33 25.61 42.7)"  >
<path style="stroke: none; stroke-width: 1; stroke-dasharray: none; stroke-linecap: butt; stroke-dashoffset: 0; stroke-linejoin: miter; stroke-miterlimit: 4; fill: rgb(110,163,194); fill-rule: nonzero; opacity: 1;" vector-effect="non-scaling-stroke"  transform=" translate(-203.96, -217.5)" d="M 189.925781 190.269531 L 188.644531 190.273438 L 184.195312 190.300781 L 166.074219 238.578125 C 169.394531 240.398438 172.773438 241.816406 176.210938 242.828125 C 177.050781 243.207031 179.664062 243.738281 184.046875 244.421875 C 185.8125 244.625 187.589844 244.726562 189.382812 244.726562 C 192.09375 244.726562 194.835938 244.496094 197.609375 244.039062 C 199 243.808594 200.394531 243.519531 201.800781 243.175781 C 205.328125 242.210938 207.453125 241.5625 208.179688 241.230469 C 215.078125 238.679688 220.96875 235.207031 225.855469 230.808594 C 230.742188 226.410156 234.621094 221.089844 237.496094 214.84375 C 239.617188 209.800781 240.617188 207.046875 240.5 206.585938 C 241.070312 204.269531 241.515625 200.320312 241.835938 194.738281 C 241.929688 193.753906 241.507812 192.992188 240.566406 192.445312 C 226.214844 191.167969 209.335938 190.445312 189.925781 190.269531" stroke-linecap="round" />
</g>
		<g transform="matrix(1.33 0 0 1.33 -25.34 42.7)" clip-path="url(#CLIPPATH_58)"  >
<clipPath id="CLIPPATH_58" >
	<path transform="matrix(1 0 0 1 0.13 0) translate(-165.88, -217.5)" d="M 127.765625 190 L 204 190 L 204 245 L 127.765625 245 Z M 127.765625 190" stroke-linecap="round" />
</clipPath>
<path style="stroke: none; stroke-width: 1; stroke-dasharray: none; stroke-linecap: butt; stroke-dashoffset: 0; stroke-linejoin: miter; stroke-miterlimit: 4; fill: rgb(110,163,194); fill-rule: nonzero; opacity: 1;" vector-effect="non-scaling-stroke"  transform=" translate(-165.76, -217.5)" d="M 179.804688 190.269531 L 181.089844 190.269531 L 185.539062 190.300781 L 203.628906 238.589844 C 200.308594 240.410156 196.929688 241.824219 193.488281 242.832031 C 192.648438 243.210938 190.035156 243.742188 185.652344 244.421875 C 183.886719 244.625 182.109375 244.722656 180.316406 244.722656 C 177.609375 244.722656 174.867188 244.492188 172.089844 244.03125 C 170.703125 243.796875 169.304688 243.511719 167.902344 243.164062 C 164.375 242.195312 162.246094 241.546875 161.519531 241.214844 C 154.625 238.664062 148.734375 235.1875 143.851562 230.785156 C 138.96875 226.382812 135.09375 221.058594 132.222656 214.8125 C 130.105469 209.765625 129.105469 207.011719 129.222656 206.550781 C 128.652344 204.234375 128.210938 200.285156 127.894531 194.703125 C 127.800781 193.71875 128.222656 192.957031 129.164062 192.410156 C 143.515625 191.144531 160.398438 190.429688 179.804688 190.269531" stroke-linecap="round" />
</g>
		<g transform="matrix(1.33 0 0 1.33 10.95 74.99)" clip-path="url(#CLIPPATH_59)"  >
<clipPath id="CLIPPATH_59" >
	<path transform="matrix(1 0 0 1 0.05 -0.21) translate(-193, -241.47)" d="M 165 229 L 221 229 L 221 253.945312 L 165 253.945312 Z M 165 229" stroke-linecap="round" />
</clipPath>
<path style="stroke: none; stroke-width: 1; stroke-dasharray: none; stroke-linecap: butt; stroke-dashoffset: 0; stroke-linejoin: miter; stroke-miterlimit: 4; fill: rgb(110,163,194); fill-rule: nonzero; opacity: 1;" vector-effect="non-scaling-stroke"  transform=" translate(-192.95, -241.68)" d="M 210.542969 229.410156 L 210.507812 229.410156 C 202.804688 229.949219 197.203125 230.433594 193.703125 230.867188 C 192.152344 231.046875 190.757812 231.226562 189.511719 231.410156 L 180.929688 232.867188 C 180.246094 232.96875 179.609375 233.023438 179.015625 233.03125 L 165.792969 246.398438 C 166.570312 247.414062 167.710938 248.382812 169.214844 249.304688 C 169.96875 249.761719 170.8125 250.210938 171.746094 250.644531 L 173.214844 251.289062 C 174.238281 251.710938 175.355469 252.121094 176.5625 252.519531 C 179.753906 253.566406 183.613281 254.042969 188.144531 253.941406 C 192.058594 253.820312 195.285156 253.585938 197.824219 253.230469 L 201.8125 252.601562 C 204.363281 252.125 206.691406 251.519531 208.796875 250.796875 C 210.902344 250.070312 212.785156 249.222656 214.445312 248.253906 L 216.773438 246.707031 L 219.265625 244.53125 C 219.511719 244.410156 219.777344 243.878906 220.0625 242.933594 C 220.125 242.539062 220.109375 242.109375 220.011719 241.65625 C 219.917969 241.199219 219.746094 240.714844 219.496094 240.199219 C 217.910156 236.902344 217.050781 235.222656 216.914062 235.160156 C 215.890625 233.488281 214.785156 232.105469 213.59375 231.011719 C 213 230.464844 212.382812 229.992188 211.742188 229.589844 C 211.203125 229.457031 210.804688 229.398438 210.542969 229.410156" stroke-linecap="round" />
</g>
		<g transform="matrix(1.33 0 0 1.33 -10.64 74.98)" clip-path="url(#CLIPPATH_60)"  >
<clipPath id="CLIPPATH_60" >
	<path transform="matrix(1 0 0 1 -0.25 -0.2) translate(-176.5, -241.47)" d="M 149 229 L 204 229 L 204 253.945312 L 149 253.945312 Z M 149 229" stroke-linecap="round" />
</clipPath>
<path style="stroke: none; stroke-width: 1; stroke-dasharray: none; stroke-linecap: butt; stroke-dashoffset: 0; stroke-linejoin: miter; stroke-miterlimit: 4; fill: rgb(110,163,194); fill-rule: nonzero; opacity: 1;" vector-effect="non-scaling-stroke"  transform=" translate(-176.75, -241.67)" d="M 159.164062 229.394531 L 159.203125 229.394531 C 166.90625 229.9375 172.507812 230.425781 176.007812 230.859375 C 177.554688 231.042969 178.953125 231.226562 180.195312 231.40625 L 188.777344 232.867188 C 189.460938 232.972656 190.101562 233.027344 190.691406 233.035156 L 203.90625 246.410156 C 203.128906 247.425781 201.988281 248.394531 200.484375 249.3125 C 199.730469 249.773438 198.886719 250.21875 197.953125 250.652344 L 196.480469 251.292969 C 195.457031 251.714844 194.339844 252.125 193.132812 252.523438 C 189.941406 253.570312 186.082031 254.042969 181.550781 253.9375 C 177.636719 253.816406 174.410156 253.578125 171.871094 253.222656 L 167.882812 252.59375 C 165.332031 252.113281 163.007812 251.507812 160.902344 250.78125 C 158.796875 250.054688 156.914062 249.207031 155.25 248.234375 L 152.925781 246.6875 L 150.433594 244.511719 C 150.191406 244.390625 149.925781 243.859375 149.636719 242.914062 C 149.578125 242.515625 149.59375 242.089844 149.6875 241.632812 C 149.785156 241.175781 149.957031 240.691406 150.207031 240.179688 C 151.792969 236.882812 152.65625 235.203125 152.792969 235.140625 C 153.816406 233.46875 154.921875 232.085938 156.113281 230.996094 C 156.710938 230.449219 157.328125 229.972656 157.964844 229.570312 C 158.507812 229.441406 158.90625 229.382812 159.164062 229.394531" stroke-linecap="round" />
</g>
		<g transform="matrix(1.33 0 0 1.33 6.93 50.08)" clip-path="url(#CLIPPATH_61)"  >
<clipPath id="CLIPPATH_61" >
	<path transform="matrix(1 0 0 1 0.01 -0.07) translate(-190, -222.97)" d="M 138 192 L 242 192 L 242 253.945312 L 138 253.945312 Z M 138 192" stroke-linecap="round" />
</clipPath>
<path style="stroke: none; stroke-width: 1; stroke-dasharray: none; stroke-linecap: butt; stroke-dashoffset: 0; stroke-linejoin: miter; stroke-miterlimit: 4; fill: rgb(142,188,214); fill-rule: nonzero; opacity: 1;" vector-effect="non-scaling-stroke"  transform=" translate(-189.99, -223.04)" d="M 236.75 192.125 C 236.3125 193.0625 235.839844 193.988281 235.339844 194.902344 C 233.371094 198.46875 230.910156 201.808594 227.960938 204.929688 C 225.015625 208.050781 221.574219 210.949219 217.648438 213.625 L 211.390625 217.46875 C 208.582031 218.941406 203.976562 220.601562 197.574219 222.445312 C 195.757812 222.96875 193.796875 223.507812 191.6875 224.058594 C 186.152344 225.339844 180.394531 226.238281 174.410156 226.753906 C 173.070312 226.847656 171.742188 226.925781 170.425781 226.984375 L 170.421875 226.984375 C 168.144531 227.085938 165.894531 227.136719 163.671875 227.136719 C 154.703125 227.132812 146.1875 226.289062 138.125 224.605469 C 139.847656 226.835938 141.757812 228.894531 143.851562 230.785156 C 146.292969 232.984375 148.980469 234.953125 151.921875 236.6875 C 151.5 237.519531 150.929688 238.683594 150.207031 240.179688 C 149.957031 240.691406 149.785156 241.175781 149.6875 241.632812 C 149.59375 242.089844 149.578125 242.515625 149.636719 242.914062 C 149.925781 243.859375 150.191406 244.390625 150.433594 244.511719 L 152.925781 246.6875 L 155.25 248.234375 C 156.914062 249.207031 158.796875 250.054688 160.902344 250.78125 C 163.007812 251.507812 165.332031 252.113281 167.882812 252.59375 L 171.871094 253.222656 C 174.410156 253.578125 177.636719 253.816406 181.550781 253.9375 C 181.949219 253.949219 182.34375 253.953125 182.734375 253.953125 C 183.457031 253.953125 184.160156 253.9375 184.84375 253.90625 C 185.535156 253.9375 186.238281 253.953125 186.960938 253.953125 C 187.347656 253.953125 187.742188 253.949219 188.144531 253.941406 C 192.058594 253.820312 195.285156 253.585938 197.824219 253.230469 L 201.8125 252.601562 C 204.363281 252.125 206.691406 251.519531 208.796875 250.796875 C 210.902344 250.070312 212.785156 249.222656 214.445312 248.253906 L 216.773438 246.707031 L 219.265625 244.53125 C 219.511719 244.410156 219.777344 243.878906 220.0625 242.933594 C 220.125 242.539062 220.109375 242.109375 220.011719 241.65625 C 219.917969 241.199219 219.746094 240.714844 219.496094 240.199219 C 218.777344 238.703125 218.207031 237.539062 217.785156 236.707031 C 220.726562 234.972656 223.414062 233.007812 225.855469 230.808594 C 230.742188 226.410156 234.621094 221.089844 237.496094 214.84375 C 239.617188 209.800781 240.617188 207.046875 240.5 206.585938 C 241.070312 204.269531 241.515625 200.320312 241.835938 194.738281 C 241.929688 193.753906 241.507812 192.992188 240.566406 192.445312 C 239.316406 192.332031 238.046875 192.226562 236.753906 192.125 Z M 199.015625 226.277344 L 200.476562 230.183594 C 197.984375 230.398438 195.910156 230.605469 194.25 230.800781 C 195.90625 230.605469 197.984375 230.398438 200.476562 230.183594 Z M 190.691406 233.035156 L 198.585938 241.023438 L 198.582031 241.023438 Z M 200.914062 243.382812 L 200.917969 243.386719 L 200.910156 243.386719 C 200.910156 243.386719 200.914062 243.382812 200.914062 243.382812 Z M 184.847656 244.507812 C 184.847656 244.507812 184.851562 244.507812 184.851562 244.507812 L 184.84375 244.507812 C 184.847656 244.507812 184.847656 244.507812 184.847656 244.507812 Z M 184.847656 244.507812" stroke-linecap="round" />
</g>
		<g transform="matrix(1.33 0 0 1.33 -15.31 -42)" clip-path="url(#CLIPPATH_62)"  >
<clipPath id="CLIPPATH_62" >
	<path transform="matrix(1 0 0 1 0.31 33.76) translate(-173.5, -187.75)" d="M 166 187.5 L 181 187.5 L 181 188 L 166 188 Z M 166 187.5" stroke-linecap="round" />
</clipPath>
<path style="stroke: none; stroke-width: 1; stroke-dasharray: none; stroke-linecap: butt; stroke-dashoffset: 0; stroke-linejoin: miter; stroke-miterlimit: 4; fill: rgb(253,193,6); fill-rule: nonzero; opacity: 1;" vector-effect="non-scaling-stroke"  transform=" translate(-173.19, -153.99)" d="M 168.894531 120.214844 C 168.785156 120.214844 168.675781 120.222656 168.566406 120.238281 C 167.378906 120.410156 166.542969 121.476562 166.640625 122.660156 L 166.636719 122.660156 C 166.632812 123.320312 166.464844 126.175781 166.136719 131.230469 L 166.136719 131.261719 C 166.078125 132.390625 166.039062 133.351562 166.027344 134.132812 C 165.980469 136.210938 166.070312 138.070312 166.304688 139.710938 L 166.304688 139.722656 C 166.582031 141.601562 167.039062 143.480469 167.683594 145.355469 L 167.6875 145.375 L 167.691406 145.375 L 167.695312 145.394531 C 168.023438 146.296875 168.453125 147.332031 168.988281 148.503906 C 169.003906 148.539062 169.019531 148.570312 169.039062 148.605469 C 170.941406 152.285156 172.21875 155.015625 172.875 156.792969 L 172.886719 156.828125 C 173.660156 158.828125 174.273438 161.015625 174.730469 163.390625 C 174.738281 163.425781 174.746094 163.457031 174.753906 163.492188 C 175.953125 168.476562 176.183594 175.757812 175.441406 185.339844 C 175.34375 186.582031 176.273438 187.664062 177.515625 187.761719 C 177.574219 187.765625 177.632812 187.769531 177.691406 187.769531 C 178.859375 187.769531 179.847656 186.867188 179.9375 185.6875 C 180.710938 175.695312 180.453125 167.980469 179.164062 162.539062 L 179.160156 162.539062 C 178.65625 159.914062 177.972656 157.480469 177.109375 155.234375 C 176.394531 153.296875 175.058594 150.429688 173.09375 146.628906 C 172.613281 145.578125 172.230469 144.660156 171.945312 143.875 C 171.398438 142.273438 171.007812 140.675781 170.769531 139.078125 C 170.574219 137.679688 170.496094 136.0625 170.535156 134.226562 L 170.535156 134.21875 C 170.550781 133.492188 170.585938 132.59375 170.640625 131.523438 C 170.988281 126.148438 171.160156 123.148438 171.148438 122.523438 C 171.148438 122.386719 171.136719 122.261719 171.121094 122.148438 C 170.960938 121.027344 169.996094 120.214844 168.894531 120.214844 Z M 168.894531 120.214844" stroke-linecap="round" />
</g>
		<g transform="matrix(1.33 0 0 1.33 16.15 -43.36)" clip-path="url(#CLIPPATH_63)"  >
<clipPath id="CLIPPATH_63" >
	<path transform="matrix(1 0 0 1 0.21 35.78) translate(-197, -188.75)" d="M 190 187.5 L 204 187.5 L 204 190 L 190 190 Z M 190 187.5" stroke-linecap="round" />
</clipPath>
<path style="stroke: none; stroke-width: 1; stroke-dasharray: none; stroke-linecap: butt; stroke-dashoffset: 0; stroke-linejoin: miter; stroke-miterlimit: 4; fill: rgb(253,193,6); fill-rule: nonzero; opacity: 1;" vector-effect="non-scaling-stroke"  transform=" translate(-196.79, -152.97)" d="M 192.488281 116.851562 C 191.339844 116.851562 190.359375 117.726562 190.246094 118.890625 C 190.039062 121.042969 190.207031 123.101562 190.75 125.0625 C 191.210938 126.949219 192.507812 130.378906 194.636719 135.347656 L 194.632812 135.347656 C 195.027344 136.441406 195.574219 138.140625 196.28125 140.441406 C 197.308594 144.160156 198.039062 147.683594 198.480469 151.003906 L 198.480469 151.011719 C 198.835938 153.621094 198.96875 158.070312 198.882812 164.359375 L 198.882812 164.371094 C 198.871094 165.34375 198.8125 167.058594 198.703125 169.515625 C 198.128906 180.21875 197.851562 186.007812 197.867188 186.882812 C 197.894531 188.113281 198.898438 189.09375 200.121094 189.09375 C 200.136719 189.09375 200.15625 189.09375 200.171875 189.09375 C 201.417969 189.066406 202.40625 188.035156 202.378906 186.789062 C 202.363281 186.027344 202.640625 180.34375 203.210938 169.734375 L 203.210938 169.714844 C 203.320312 167.214844 203.382812 165.453125 203.390625 164.425781 C 203.484375 157.914062 203.339844 153.242188 202.953125 150.410156 C 202.484375 146.867188 201.703125 143.121094 200.613281 139.179688 C 200.605469 139.160156 200.601562 139.140625 200.59375 139.117188 C 199.84375 136.667969 199.257812 134.863281 198.839844 133.703125 C 198.824219 133.664062 198.808594 133.625 198.789062 133.585938 C 196.726562 128.773438 195.503906 125.554688 195.117188 123.9375 C 195.113281 123.910156 195.105469 123.882812 195.097656 123.855469 C 194.703125 122.433594 194.582031 120.921875 194.738281 119.328125 C 194.855469 118.085938 193.949219 116.984375 192.710938 116.863281 C 192.636719 116.855469 192.5625 116.851562 192.488281 116.851562 Z M 192.488281 116.851562" stroke-linecap="round" />
</g>
		<g transform="matrix(1.33 0 0 1.33 -63.59 41.66)"  >
<path style="stroke: none; stroke-width: 1; stroke-dasharray: none; stroke-linecap: butt; stroke-dashoffset: 0; stroke-linejoin: miter; stroke-miterlimit: 4; fill: rgb(0,0,0); fill-rule: nonzero; opacity: 1;" vector-effect="non-scaling-stroke"  transform=" translate(-10.95, 13.89)" d="M 1.128906 -3.3125 C 2.183594 3.351562 13.492188 -1.636719 16.300781 -4.5625 C 20.703125 -9.164062 23.160156 -17.46875 19.613281 -23.394531 C 17.859375 -26.398438 14.347656 -27.527344 11.074219 -27.722656 C 8.265625 -27.917969 3.664062 -27.722656 1.832031 -25.226562 C -0.0390625 -22.617188 0.742188 -18.132812 0.859375 -15.128906 C 1.015625 -11.269531 0.546875 -7.136719 1.128906 -3.3125 Z M 9.046875 -8.890625 C 7.058594 -9.320312 7.914062 -13.726562 7.914062 -15.167969 C 7.953125 -17.507812 7.292969 -20.160156 10.371094 -19.378906 C 12.710938 -18.832031 14.542969 -16.882812 14 -14.386719 C 13.648438 -12.789062 11.269531 -8.382812 9.046875 -8.890625 Z M 9.046875 -8.890625" stroke-linecap="round" />
</g>
		<g transform="matrix(1.33 0 0 1.33 -36.03 44.48)"  >
<path style="stroke: none; stroke-width: 1; stroke-dasharray: none; stroke-linecap: butt; stroke-dashoffset: 0; stroke-linejoin: miter; stroke-miterlimit: 4; fill: rgb(0,0,0); fill-rule: nonzero; opacity: 1;" vector-effect="non-scaling-stroke"  transform=" translate(-9.7, 11.78)" d="M 12.984375 -0.625 C 18.832031 -2.847656 19.417969 -11.347656 18.445312 -16.609375 C 17.351562 -22.460938 12.007812 -24.839844 6.550781 -22.886719 C -0.46875 -20.394531 -0.117188 -12.671875 1.675781 -6.746094 C 2.457031 -4.132812 3.273438 -1.871094 5.925781 -0.703125 C 8.070312 0.234375 10.761719 0.195312 12.984375 -0.625 Z M 8.1875 -5.886719 C 6.667969 -7.449219 6.785156 -11.855469 7.410156 -13.84375 C 7.875 -15.246094 10.292969 -17.195312 11.96875 -16.300781 C 14.191406 -15.050781 13.453125 -9.671875 12.945312 -7.679688 C 12.320312 -5.382812 10.410156 -3.625 8.1875 -5.886719 Z M 8.1875 -5.886719" stroke-linecap="round" />
</g>
		<g transform="matrix(1.33 0 0 1.33 -8.49 41.66)"  >
<path style="stroke: none; stroke-width: 1; stroke-dasharray: none; stroke-linecap: butt; stroke-dashoffset: 0; stroke-linejoin: miter; stroke-miterlimit: 4; fill: rgb(0,0,0); fill-rule: nonzero; opacity: 1;" vector-effect="non-scaling-stroke"  transform=" translate(-10.95, 13.89)" d="M 1.128906 -3.3125 C 2.183594 3.351562 13.492188 -1.636719 16.300781 -4.5625 C 20.703125 -9.164062 23.160156 -17.46875 19.613281 -23.394531 C 17.859375 -26.398438 14.347656 -27.527344 11.074219 -27.722656 C 8.265625 -27.917969 3.664062 -27.722656 1.832031 -25.226562 C -0.0390625 -22.617188 0.742188 -18.132812 0.859375 -15.128906 C 1.015625 -11.269531 0.546875 -7.136719 1.128906 -3.3125 Z M 9.046875 -8.890625 C 7.058594 -9.320312 7.914062 -13.726562 7.914062 -15.167969 C 7.953125 -17.507812 7.292969 -20.160156 10.371094 -19.378906 C 12.710938 -18.832031 14.542969 -16.882812 14 -14.386719 C 13.648438 -12.789062 11.269531 -8.382812 9.046875 -8.890625 Z M 9.046875 -8.890625" stroke-linecap="round" />
</g>
		<g transform="matrix(1.33 0 0 1.33 19.07 44.48)"  >
<path style="stroke: none; stroke-width: 1; stroke-dasharray: none; stroke-linecap: butt; stroke-dashoffset: 0; stroke-linejoin: miter; stroke-miterlimit: 4; fill: rgb(0,0,0); fill-rule: nonzero; opacity: 1;" vector-effect="non-scaling-stroke"  transform=" translate(-9.7, 11.78)" d="M 12.984375 -0.625 C 18.832031 -2.847656 19.417969 -11.347656 18.445312 -16.609375 C 17.351562 -22.460938 12.007812 -24.839844 6.550781 -22.886719 C -0.46875 -20.394531 -0.117188 -12.671875 1.675781 -6.746094 C 2.457031 -4.132812 3.273438 -1.871094 5.925781 -0.703125 C 8.070312 0.234375 10.761719 0.195312 12.984375 -0.625 Z M 8.1875 -5.886719 C 6.667969 -7.449219 6.785156 -11.855469 7.410156 -13.84375 C 7.875 -15.246094 10.292969 -17.195312 11.96875 -16.300781 C 14.191406 -15.050781 13.453125 -9.671875 12.945312 -7.679688 C 12.320312 -5.382812 10.410156 -3.625 8.1875 -5.886719 Z M 8.1875 -5.886719" stroke-linecap="round" />
</g>
		<g transform="matrix(1.33 0 0 1.33 46.23 44.27)"  >
<path style="stroke: none; stroke-width: 1; stroke-dasharray: none; stroke-linecap: butt; stroke-dashoffset: 0; stroke-linejoin: miter; stroke-miterlimit: 4; fill: rgb(0,0,0); fill-rule: nonzero; opacity: 1;" vector-effect="non-scaling-stroke"  transform=" translate(-10.66, 11.94)" d="M 1.832031 -0.742188 C 5.535156 3.199219 7.253906 -9.863281 7.640625 -11.464844 C 9.242188 -8.851562 15.636719 4.484375 19.183594 -3.160156 C 21.40625 -7.875 20.78125 -15.832031 20.042969 -20.667969 C 19.691406 -23.277344 16.921875 -24.371094 15.011719 -22.382812 C 13.023438 -20.277344 13.84375 -16.144531 14 -13.609375 C 12.4375 -16.027344 11.582031 -18.675781 10.097656 -21.054688 C 8.929688 -23.003906 6.394531 -24.644531 4.09375 -23.511719 C 0.429688 -21.679688 1.015625 -13.414062 0.820312 -9.941406 C 0.703125 -7.527344 0.0390625 -2.691406 1.832031 -0.742188 Z M 1.832031 -0.742188" stroke-linecap="round" />
</g>
		<g transform="matrix(1.33 0 0 1.33 73.07 41.49)"  >
<path style="stroke: none; stroke-width: 1; stroke-dasharray: none; stroke-linecap: butt; stroke-dashoffset: 0; stroke-linejoin: miter; stroke-miterlimit: 4; fill: rgb(0,0,0); fill-rule: nonzero; opacity: 1;" vector-effect="non-scaling-stroke"  transform=" translate(-9.46, 14.03)" d="M 6.472656 -0.078125 C 8.890625 -0.195312 11.308594 -0.15625 13.6875 -0.273438 C 15.675781 -0.390625 17.15625 -0.664062 17.9375 -2.613281 C 18.40625 -3.898438 18.675781 -6.238281 17.390625 -7.214844 C 15.949219 -8.265625 13.6875 -7.796875 12.046875 -7.875 C 10.566406 -7.953125 6.746094 -9.164062 8.96875 -11.230469 C 10.292969 -12.476562 12.359375 -10.996094 13.921875 -11.425781 C 15.636719 -11.933594 16.027344 -13.882812 15.832031 -15.480469 C 15.714844 -16.84375 15.246094 -17.625 13.921875 -18.132812 C 12.632812 -18.597656 9.941406 -17.742188 8.929688 -18.484375 C 7.566406 -19.457031 8.8125 -21.289062 9.789062 -21.484375 C 11.269531 -21.835938 12.867188 -20.820312 14.425781 -21.445312 C 15.792969 -21.992188 16.492188 -23.277344 16.300781 -24.761719 C 16.027344 -26.828125 14.308594 -27.179688 12.515625 -27.449219 C 9.863281 -27.839844 2.847656 -29.167969 1.675781 -25.890625 C 1.167969 -24.488281 1.441406 -22.539062 1.363281 -21.09375 C 1.285156 -18.484375 1.167969 -15.871094 1.054688 -13.257812 C 0.9375 -11.035156 0.859375 -8.8125 0.742188 -6.589844 C 0.664062 -4.835938 0.15625 -2.300781 1.558594 -0.9375 C 2.847656 0.3125 4.914062 -0.0390625 6.472656 -0.078125 Z M 6.472656 -0.078125" stroke-linecap="round" />
</g>
</g>
</g>
</svg>